<?xml version="1.0" encoding="UTF-8"?>
<svg width="152px" height="152px" viewBox="0 0 152 152" version="1.1" xmlns="http://www.w3.org/2000/svg" xmlns:xlink="http://www.w3.org/1999/xlink">
    <title>Icon</title>
    <g id="Page-1" stroke="none" stroke-width="1" fill="none" fill-rule="evenodd">
        <g id="icon_76pt@2x">
            <g id="Icon">
                <rect id="Background" fill="#FFFFFF" x="0" y="0" width="152" height="152"></rect>
                <g id="Smooth-Corners" fill="#000000">
                    <path d="M0.000860072326,109.220613 C0.0427053983,123.848286 1.61064289,129.245564 4.52038622,134.686311 C7.46998905,140.201589 11.7984113,144.530011 17.3136891,147.479614 C22.8289669,150.429217 28.2995762,152 43.3857449,152 L43.3857449,152 L0,152 Z M152,108.614255 L152,152 L108.614255,152 C123.700424,152 129.171033,150.429217 134.686311,147.479614 C140.201589,144.530011 144.530011,140.201589 147.479614,134.686311 C150.429217,129.171033 152,123.700424 152,108.614255 L152,108.614255 Z M152,43.3857449 C152,28.2995762 150.429217,22.8289669 147.479614,17.3136891 C144.530011,11.7984113 140.201589,7.46998905 134.686311,4.52038622 C129.171033,1.57078339 123.700424,-1.01844821e-15 108.614255,1.75283602e-15 L152,0 Z M0,0 L42.7793874,0.000860072326 C28.1517137,0.0427053983 22.7544361,1.61064289 17.3136891,4.52038622 C11.7984113,7.46998905 7.46998905,11.7984113 4.52038622,17.3136891 C1.57078339,22.8289669 -6.78965471e-16,28.2995762 1.16855735e-15,43.3857449 L0,0 Z"></path>
                </g>
                <g id="PLasticPatrol_Hand_Teal_Large" stroke-width="1" transform="translate(35.625000, 6.828125)">
                    <path d="M39.6290256,137.645691 C39.31829,137.588282 38.604749,137.542355 38.0523302,137.542355 C37.1891757,137.530873 37.0050361,137.496427 36.7978791,137.289754 C36.6252482,137.117526 36.5792133,136.968262 36.6367569,136.761589 C36.6943005,136.497506 36.5446871,136.153051 36.3490388,136.153051 C36.3145126,136.153051 36.2799864,136.267869 36.2799864,136.417133 C36.2914951,136.796034 35.9807595,136.784552 34.0933285,136.325278 C33.1611218,136.095641 32.3324935,135.934896 32.2634412,135.969341 C32.1828801,135.992305 31.9181794,135.820077 31.6764962,135.567476 C31.4233042,135.314876 30.8363592,134.84412 30.3645015,134.522628 C29.8926437,134.201136 29.3172074,133.764826 29.0985416,133.569635 C28.8798759,133.362961 28.5691403,133.16777 28.4080181,133.121842 C28.2468959,133.087397 27.9706865,132.926651 27.7750382,132.765905 L27.4297764,132.467377 L27.8325818,132.513304 C28.200861,132.559232 28.2584047,132.524786 28.4195268,132.180331 C28.6036664,131.80143 28.6036664,131.778466 28.3850006,131.663647 C28.0742651,131.502902 27.280163,131.43401 27.1996019,131.560311 C27.1650757,131.61772 27.1880932,131.778466 27.2571455,131.904766 C27.3837415,132.145885 27.2226194,132.249222 27.0845147,132.019585 C27.0384798,131.950694 26.819814,131.766984 26.5896395,131.61772 C26.3479562,131.468456 25.8070461,131.078073 25.3582058,130.756581 C24.9208742,130.43509 24.4835427,130.205453 24.4029816,130.239898 C24.3109118,130.274344 24.218842,130.205453 24.1843158,130.090634 C24.1612984,129.975816 23.758493,129.688769 23.252109,129.436169 C22.7687426,129.183568 22.2623586,128.896522 22.1357626,128.793185 C22.0091667,128.678367 21.2035559,128.219093 20.3519102,127.7713 C17.8890429,126.46237 16.9453274,125.704567 16.415926,124.60231 C16.2778213,124.338227 16.1282079,124.131554 16.0706643,124.166 C16.0131206,124.200445 15.6678589,123.959326 15.3110884,123.614871 L14.655091,123.006333 L14.5975474,123.695244 L14.5400038,124.372673 L13.7459017,123.178561 C13.3085701,122.512613 12.8482211,121.858148 12.7216251,121.720366 C12.5374855,121.513692 12.514468,121.37591 12.5720117,120.9396 C12.641064,120.491808 12.6065378,120.331062 12.3648546,119.917715 C12.2037325,119.653633 11.9850667,119.355105 11.8814881,119.26325 C11.7088573,119.125468 11.6973485,119.125468 11.7664009,119.366586 C11.9620492,120.055497 11.9620492,120.147352 11.7664009,119.802897 C11.6628223,119.630669 11.6052787,119.355105 11.6398049,119.20584 C11.6973485,118.907312 11.5132089,118.712121 10.6615632,118.14951 C10.3508276,117.954319 10.1091444,117.850982 10.0861269,117.919873 C10.0631095,117.988764 9.86746116,117.782091 9.6603041,117.449117 C9.45314703,117.127626 9.2114638,116.863543 9.13090272,116.863543 C8.95827183,116.863543 8.84318458,116.507606 8.84318458,115.876104 C8.84318458,115.623503 8.7626235,115.313493 8.67055369,115.187193 C8.57848389,115.072375 8.50943154,114.842738 8.49792281,114.681992 C8.49792281,114.452355 8.52094026,114.429391 8.61301007,114.567173 C8.75111477,114.762365 8.68206242,114.349018 8.47490536,113.660107 L8.34830938,113.269724 L8.18718722,113.568252 C8.10662614,113.74048 8.00304761,113.878262 7.98003016,113.878262 C7.94550398,113.878262 7.66929457,113.373061 7.3700677,112.764523 C7.05933211,112.144503 6.67954416,111.44411 6.51842201,111.202991 C6.34579112,110.961872 6.21919514,110.628899 6.21919514,110.456671 C6.21919514,109.939988 5.33302327,107.930664 4.90720042,107.459908 C4.68853464,107.230271 4.33176414,106.816925 4.11309836,106.529878 C3.61822315,105.875413 3.20390903,105.507994 2.96222579,105.496512 C2.83562981,105.496512 2.73205128,105.335766 2.6514902,105.071683 C2.59394658,104.830565 2.36377206,104.015353 2.14510628,103.257551 C1.56967,101.282673 1.51212637,100.89229 1.93794922,101.799356 C2.22566736,102.430858 2.53640295,102.75235 2.68601638,102.603086 C2.70903383,102.580122 2.66299893,102.281594 2.57092912,101.94862 C2.44433314,101.443419 2.43282442,101.236746 2.5594204,100.777472 C2.68601638,100.260788 2.70903383,100.226343 2.88166472,100.398571 C3.04278687,100.559317 3.03127815,100.45598 2.83562981,99.6292867 C2.69752511,99.1011216 2.53640295,98.6303658 2.46735059,98.5844384 C2.39829824,98.538511 2.32924589,98.228501 2.32924589,97.8955274 C2.31773716,97.5625537 2.156615,96.5751147 1.97247539,95.7139759 C1.77682706,94.8413553 1.6617398,94.1294807 1.7077747,94.1294807 C1.83437069,94.1294807 1.93794922,93.6816885 1.82286196,93.6127974 C1.6617398,93.5209426 1.23591695,92.5105398 1.14384715,92.0168203 L1.05177734,91.5460645 L0.948198815,92.0627477 L0.85612901,92.5794309 L0.775567931,92.1890481 C0.729533028,91.9708929 0.660480675,91.2819819 0.614445772,90.6389983 C0.56841087,90.0074966 0.487849791,89.3530312 0.430306162,89.215249 C0.338236358,88.985612 0.38427126,88.8822753 0.6719894,88.6181928 C0.867637735,88.4344832 1.13233842,88.2507736 1.25893441,88.216328 C1.40854784,88.1704006 1.46609147,88.067064 1.43156529,87.9522455 C1.39703911,87.8489089 1.28195186,87.4125986 1.17837333,86.9877701 C1.0747948,86.539978 0.879146461,86.0921858 0.718024303,85.9199581 C-0.225691197,84.8980735 -0.237199922,83.4743241 0.6719894,79.9264325 C1.1668646,78.0089636 1.31647803,76.9641153 1.1668646,76.5852143 C0.85612901,75.8159303 0.85612901,75.8044485 1.02875989,75.9651944 C1.30496931,76.2177951 1.36251294,76.1144584 1.36251294,75.3911019 C1.36251294,74.9088642 1.39703911,74.7251546 1.46609147,74.8284912 C1.53514382,74.9318279 1.58117872,74.6218179 1.58117872,73.9558707 C1.59268745,72.4861939 1.81135323,71.0739264 2.38678951,68.7660746 C2.5133855,68.2838369 2.67450765,67.3308434 2.75506873,66.6304505 C2.83562981,65.9415395 2.92769962,65.4593019 2.95071707,65.5741204 C2.97373452,65.677457 3.04278687,65.7693118 3.1003305,65.7693118 C3.30748756,65.7693118 3.33050501,65.2067012 3.15787413,64.2077802 C2.96222579,63.1284864 2.96222579,59.6265222 3.15787413,59.17873 C3.23843521,58.9605749 3.24994393,58.9605749 3.33050501,59.17873 C3.39955737,59.3509578 3.42257482,59.3279941 3.42257482,59.0639115 C3.43408354,58.799829 3.46860972,58.7539016 3.57218825,58.8572383 C3.75632786,59.0409478 3.89443257,59.029466 3.89443257,58.8572383 C3.89443257,58.5816739 3.1463654,57.043106 3.01976942,57.043106 C2.85864726,57.043106 2.95071707,55.0682278 3.11183923,54.9648912 C3.28447011,54.8500727 2.83562981,53.7937425 2.30622844,53.0589041 L2.05303647,52.7029668 L2.30622844,52.7718579 C2.50187677,52.8177853 2.53640295,52.7948216 2.47885932,52.6340757 C2.27170226,52.1173925 2.27170226,51.9107192 2.44433314,51.8418281 C2.76657746,51.7155277 2.66299893,51.2103263 2.27170226,51.0151349 C1.74230088,50.7395705 1.0747948,50.0965869 0.660480675,49.4536033 L0.303710181,48.8795108 L0.361253809,47.5361344 C0.418797437,46.1238669 0.718024303,44.9871638 1.25893441,44.1145432 C1.42005656,43.8504606 1.47760019,43.6208236 1.43156529,43.437114 C1.37402166,43.2074771 1.39703911,43.1500678 1.58117872,43.1500678 C1.7077747,43.1500678 1.98398412,42.9893219 2.19114118,42.8056123 C2.39829824,42.6104209 2.61696403,42.4611568 2.69752511,42.4611568 C2.76657746,42.4611568 2.88166472,42.3348565 2.95071707,42.1741106 C3.08882178,41.8641006 3.5031359,41.760764 3.38804864,42.0592921 C3.28447011,42.3578202 3.38804864,42.2544835 3.72180168,41.760764 C3.96348492,41.3818629 3.9980111,41.2670444 3.87141512,41.1866715 C3.76783659,41.1177804 3.81387149,41.0833349 4.03253728,41.0833349 C4.20516816,41.0833349 4.59646483,40.922589 4.8956917,40.7273975 L5.44811052,40.382942 L4.9877615,40.4403513 C4.63099101,40.4862787 4.59646483,40.4862787 4.81513062,40.4059057 C4.97625278,40.3484965 5.25246219,40.3025691 5.42509307,40.2910872 C5.60923268,40.2796054 6.01203808,40.1992324 6.32277367,40.0958958 C7.22045427,39.7973677 8.87771075,39.923668 10.0516008,40.3714602 C10.5579847,40.5666516 11.0758773,40.7503612 11.2024733,40.7848068 C11.5362264,40.8881434 12.0195928,41.2785263 11.927523,41.3703811 C11.8814881,41.4163085 11.6743311,41.3474174 11.4556653,41.2096352 C11.0183337,40.9455527 10.9147552,40.9111071 10.9147552,41.0833349 C10.9147552,41.1407441 11.0758773,41.2785263 11.2715257,41.3703811 C11.8354532,41.6689092 12.5029593,42.3233746 12.8712385,42.9778401 C13.0553781,43.3108137 13.2165003,43.6323055 13.2165003,43.7126784 C13.2165003,43.7815695 13.481201,44.1604706 13.8034453,44.5508535 L14.3788816,45.27421 L14.0336198,45.3086556 C13.8379715,45.3316193 13.6768493,45.3775467 13.6768493,45.4234741 C13.6768493,45.4694015 13.8609889,45.8597843 14.0796547,46.2960946 C14.2983205,46.7209231 14.5054776,47.3179793 14.5515125,47.6165074 C14.6665997,48.3857913 14.9428091,48.5006098 15.1960011,47.8805899 C15.3225971,47.5820618 15.3341058,47.5935437 15.4031582,48.1561543 C15.5182454,48.9828475 15.6793676,49.4191578 16.5770482,51.3595904 C17.0143798,52.3125839 17.4747288,53.4378052 17.6128335,53.8855973 C17.8660254,54.6893268 18.2343047,55.20601 18.5795664,55.20601 C18.7061624,55.20601 18.7406886,55.1486008 18.683145,54.9993367 C18.556549,54.6778449 18.3724094,50.4984516 18.4529705,49.8554681 C18.4874966,49.5224944 18.6025839,49.1665571 18.6946537,49.0517386 C18.8557759,48.8450653 18.8672846,48.8450653 19.0399155,49.0861841 C19.3161249,49.476567 19.5002645,49.4076759 19.6383692,48.868029 C19.7879826,48.2939365 19.730439,48.1676361 19.3621598,48.2365272 C19.143494,48.2709728 19.0974591,48.2480091 19.1319853,48.098745 C19.4427209,47.0998241 19.5462994,46.2960946 19.4427209,45.7679295 C19.3736685,45.4579196 19.3161249,44.4589987 19.3161249,43.5519325 L19.3161249,41.8985462 L19.0053893,41.8641006 C18.7867235,41.8411369 18.6946537,41.7722458 18.7176711,41.6574273 C18.7406886,41.5655725 18.7982322,40.4747968 18.8557759,39.2462389 C18.9708631,36.6628227 19.0859504,35.9968754 19.5578081,35.34241 C19.7994914,35.0209182 19.8800524,34.802763 19.8225088,34.6075716 C19.7879826,34.4583075 19.857035,33.9071788 19.983631,33.3790137 C20.1102269,32.8508486 20.2483316,32.1619376 20.2943666,31.8519277 C20.3634189,31.4615448 20.44398,31.2778352 20.5820847,31.2433896 C20.8352767,31.1744985 21.0884686,30.2789142 20.9733814,29.7966766 C20.9273465,29.5670396 20.9388552,29.4866666 21.030925,29.532594 C21.1114861,29.5900033 21.157521,29.4751848 21.1460122,29.1766567 C21.1460122,28.7862738 20.9618726,28.1203265 20.9388552,28.3958909 C20.9273465,28.464782 20.8698028,28.4303364 20.8122592,28.3384816 C20.5590672,27.9480987 20.6856632,27.3395607 21.5718351,24.7791082 C21.6293787,24.641326 21.6639049,24.641326 21.8020096,24.8250356 C21.9401143,25.0317089 21.9631318,24.7905901 21.9746405,22.8157119 C21.9861492,18.5674275 21.9746405,17.7177706 21.9055881,16.7418134 C21.8250271,15.7428925 21.9401143,15.0195359 22.3544284,13.871351 C22.4464982,13.5843047 22.5730942,13.102067 22.6076204,12.7805752 C22.6881815,12.2064827 22.6881815,12.2064827 22.79176,12.5739019 C22.918356,13.0331759 22.9874083,13.0446578 23.3671963,12.6313112 C23.6203883,12.3557468 23.6664232,12.1950009 23.7239668,11.2994166 C23.7700017,10.4038323 23.839054,10.1741953 24.2073333,9.46232066 C24.5295776,8.84230078 25.4157494,6.55741268 25.4157494,6.31629383 C25.4157494,6.29333013 25.2201011,6.38518493 24.9784179,6.52296713 C24.5410863,6.77556782 23.7815104,7.63670655 23.4362486,8.27969014 C23.3326701,8.48636343 23.2406003,8.58970008 23.2290916,8.52080898 C23.2290916,8.30265384 23.4707748,7.6711521 23.5628446,7.70559765 C23.6088795,7.7170795 23.8045279,7.54485175 24.0116849,7.31521476 C24.4375078,6.83297707 24.5180688,6.47703973 24.1382809,6.82149522 L23.8850889,7.03965037 L24.0347024,6.75260412 C24.1152635,6.59185823 24.5065601,6.16702979 24.8863481,5.81109244 C25.4617843,5.27144551 25.5538542,5.13366331 25.4157494,5.03032666 C25.1740662,4.86958076 25.3236796,4.78920782 26.8543401,4.26104273 C27.9821953,3.88214169 28.2468959,3.83621429 29.2711725,3.82473244 C30.214888,3.82473244 30.5141149,3.87065984 30.9054116,4.06585128 C31.1701122,4.20363348 31.3772693,4.24956088 31.3657606,4.18066978 C31.3197257,3.95103278 31.9987405,3.97399648 32.7583164,4.22659718 C33.655997,4.53660712 34.116346,4.78920782 35.0485528,5.51256435 C35.7851112,6.07517499 36.0613206,6.17851163 36.1533904,5.92591094 C36.1764079,5.84553799 36.2339515,5.98332019 36.2799864,6.23592088 C36.3260213,6.47703973 36.4756347,6.87890447 36.590722,7.13150516 C36.7288267,7.39558771 36.8093878,7.7400432 36.7863703,7.99264389 L36.7518442,8.41747233 L36.4986522,7.9007891 C36.3605475,7.61374285 36.0728294,7.17743256 35.8656723,6.93631372 C35.416832,6.38518493 34.2889769,5.6388647 33.655997,5.4781188 C33.3912963,5.42070955 33.0805607,5.32885475 32.9539647,5.2944092 C32.7237902,5.22551811 32.7237902,5.23699996 32.9309473,5.46663695 C33.0575432,5.5929373 33.1150869,5.75368319 33.0805607,5.81109244 C33.0460345,5.85701984 33.3452614,6.09813869 33.7480668,6.32777568 C34.8989393,7.00520482 35.5779542,7.68263395 35.9807595,8.56673638 C36.4986522,9.68047581 36.590722,10.2890138 36.464126,11.8735091 C36.3950737,12.6083475 36.3720562,13.2398492 36.3950737,13.2628129 C36.4180911,13.2972585 36.4986522,13.1250307 36.5792133,12.9068756 C36.7403354,12.4016742 36.8669314,12.4476016 36.9705099,13.0446578 C37.0395623,13.5039318 37.3963328,13.9517239 37.5919811,13.8254236 C37.7185771,13.7565325 38.1904349,14.629153 38.1904349,14.9276811 C38.1904349,15.0195359 38.0983651,15.2262092 37.9717691,15.3754733 C37.8566818,15.5247373 37.6495248,15.857711 37.5114201,16.1103117 C37.3387892,16.4432853 37.2697368,16.5006946 37.2582281,16.3399487 C37.2467194,16.2136483 37.2582281,16.0643843 37.2697368,15.9954932 C37.3387892,15.7428925 37.5804724,14.0435787 37.557455,14.0091332 C37.5459462,13.9976513 37.3848241,14.0665424 37.2006845,14.1698791 L36.8669314,14.3535887 L36.8784401,16.4777309 C36.8899489,17.6488795 36.9474925,18.6478005 36.9935274,18.6937279 C37.051071,18.7511371 37.0855972,18.532982 37.0625798,18.2000083 C37.051071,17.8670347 37.0740885,17.3733151 37.1431408,17.0862689 L37.2467194,16.5695857 L37.2582281,17.2010874 C37.2697368,17.5455429 37.304263,18.0277806 37.3502979,18.2803813 L37.4193502,18.7281734 L37.6265073,18.3377905 C37.764612,18.073708 37.8336644,18.0162987 37.8451731,18.1540809 C37.8451731,18.2803813 37.7415946,18.5215001 37.6149986,18.6937279 C37.1661583,19.3252296 37.0165449,19.9452495 37.0625798,21.1049163 C37.0971059,22.1727283 37.0971059,22.195692 36.843914,22.1842102 C36.6022307,22.1727283 36.5792133,22.2301376 36.5792133,22.7123753 C36.5792133,22.9994215 36.6712831,23.4242499 36.7863703,23.6538869 C36.9820187,24.0213061 36.9820187,24.0672335 36.8093878,24.182052 C36.6482656,24.2739068 36.6137395,24.2279794 36.590722,23.8261147 C36.5677046,23.3668407 36.5101609,23.194613 36.4180911,23.2979496 C36.3950737,23.3209133 36.3490388,23.8605602 36.3260213,24.492062 L36.2684777,25.6402469 L36.4756347,25.0661545 C36.6482656,24.5953986 36.6827918,24.5494712 36.6712831,24.8365175 C36.6597744,25.0317089 36.6597744,25.5369103 36.6712831,25.9732206 C36.6943005,26.6621316 36.717318,26.7425045 36.8669314,26.6162042 C37.1431408,26.3865672 37.0855972,26.7654682 36.8208965,27.0065871 C36.6943005,27.1214056 36.5677046,27.4084518 36.5216696,27.6495707 C36.4756347,27.8906895 36.3835649,28.1662539 36.3145126,28.2695905 C36.1994253,28.4303364 36.1764079,28.3614453 36.2109341,27.9366169 C36.256969,27.3740063 36.1648992,27.3051152 35.7620938,27.6380888 C35.5089018,27.8447621 35.5089018,27.8792076 35.6354978,28.4418183 C35.8081287,29.1766567 35.8081287,29.2914752 35.6585152,29.1996204 C35.4858843,29.0962837 35.1981662,29.3603663 35.1981662,29.6244488 C35.1981662,29.8081584 35.2672186,29.842604 35.5664454,29.8081584 C35.8541636,29.7851947 35.9577421,29.7048218 36.003777,29.4866666 C36.0613206,29.2570296 36.0958468,29.3144389 36.1648992,29.8081584 C36.256969,30.451142 36.3030039,30.4970694 36.6482656,30.2329868 C37.051071,29.9344588 37.1546496,30.0492772 36.8669314,30.4741057 C36.7058093,30.7037427 36.5792133,30.9678252 36.5792133,31.0481982 C36.5792133,31.140053 36.5331784,31.2089441 36.464126,31.2089441 C36.4065824,31.2089441 36.3490388,31.0826437 36.3490388,30.9333797 C36.3490388,30.7726338 36.2799864,30.5774423 36.1994253,30.4970694 C36.1073555,30.4166964 36.0152857,30.2674324 35.9692508,30.1755776 C35.9232159,30.0377954 35.9001985,30.0377954 35.9001985,30.1985413 C35.8886897,30.3133598 35.7851112,30.451142 35.670024,30.5085512 C35.3823058,30.6692971 34.9219568,31.6222907 35.0140266,31.8634095 C35.0600615,31.9667462 35.037044,32.0815647 34.9795004,32.1160102 C34.8644132,32.1963832 34.3925554,35.2161096 34.4731165,35.4227829 C34.4961339,35.491674 34.6342387,35.572047 34.7608346,35.6064925 C34.9795004,35.6753836 34.9910091,35.6983473 34.829887,35.9394662 C34.6802736,36.1691032 34.6802736,36.260958 34.8183783,36.6628227 C34.9334655,36.9957963 34.9449742,37.2598789 34.8759219,37.6043344 C34.7263085,38.2932454 34.9449742,38.4654731 35.2442011,37.9028625 L35.416832,37.5813707 L35.4283407,37.9258262 C35.4283407,38.5228824 35.2096749,39.1543841 34.9910091,39.1084567 C34.8874306,39.085493 34.7723434,38.9477108 34.7378172,38.7869649 C34.6917823,38.5802916 34.5651863,38.9362289 34.2889769,40.0499684 C33.5409097,43.0467312 33.3452614,44.1834343 33.276209,45.9401573 C33.2071567,47.6165074 33.2071567,47.6279892 32.9769822,47.4327978 C32.7583164,47.2261245 32.7583164,47.2376063 32.8388775,47.6279892 C32.8849124,47.8461443 33,48.1676361 33.0805607,48.3513457 C33.276209,48.7072831 33.0805607,48.7991379 32.8273687,48.4661642 C32.5971942,48.1446724 32.5281419,48.3513457 32.7237902,48.8106197 C33.069052,49.6487948 32.8849124,50.6591975 32.0908103,52.2092473 C31.6880049,53.0014949 31.5383915,53.7822607 31.7225311,54.1267162 C31.8261096,54.3104258 31.7915834,54.3448713 31.5268827,54.3563532 C31.181621,54.367835 30.5486411,54.6548812 30.1688531,54.9648912 C29.9732048,55.1256371 29.9041524,55.3782378 29.8005739,56.1934491 C29.5703994,58.0994362 29.4898383,57.9386903 30.8823941,58.6276013 C31.5499002,58.9490931 32.0908103,59.1902119 32.0908103,59.1672482 C32.0908103,59.1328026 31.9987405,58.9146475 31.8721445,58.6735287 C31.5729176,58.0764725 31.4808478,57.5942348 31.6189525,57.2382974 C31.7340398,56.9512512 31.7110223,56.9282875 31.4578304,56.9282875 C31.2506733,56.9282875 31.1931297,56.8823601 31.2391646,56.7560597 C31.3312344,56.5379046 31.7225311,56.5379046 32.2404237,56.7560597 C32.7813338,56.9742149 33.0115083,56.9742149 33.0115083,56.733096 C33.0115083,56.6182776 33.3567701,56.8708782 33.9322064,57.4449707 C34.4385903,57.9386903 34.8874306,58.3061095 34.9219568,58.2716639 C35.0485528,58.1453636 34.4616078,57.272743 34.1738896,57.1579245 C33.9206977,57.0660697 33.9206977,57.043106 34.1393635,57.0890334 C34.3465205,57.1234789 34.3925554,57.0890334 34.3925554,56.8708782 C34.3925554,56.7216142 34.3350118,56.5608683 34.2774682,56.5264228 C34.2084158,56.4804954 34.2774682,56.354195 34.450099,56.2164128 C35.2787273,55.5734292 35.3823058,54.9419275 35.9347246,47.800217 C36.2109341,44.3326983 36.6022307,41.4737177 36.9590012,40.2681235 C37.1431408,39.6825492 37.051071,39.3036481 36.7863703,39.5677307 C36.5561958,39.7973677 36.4411086,39.7169947 36.6252482,39.4529122 C36.9129663,39.0510474 36.8554227,38.6377009 36.4526173,38.2587998 C36.2224428,38.0406447 36.130373,37.8569351 36.1648992,37.707671 C36.1994253,37.5813707 36.1648992,37.2369152 36.1073555,36.9383871 C35.9692508,36.3068854 36.1073555,35.9165025 36.464126,35.9165025 C36.6943005,35.9165025 36.924475,36.5709679 36.7288267,36.7087501 C36.6712831,36.7431956 36.5792133,36.8809778 36.5446871,37.0072782 C36.464126,37.2369152 36.9705099,36.7087501 37.3502979,36.180585 C37.6265073,35.7672384 37.4653851,35.5261196 36.9705099,35.6294562 L36.5561958,35.6983473 L36.6367569,34.802763 C36.6827918,34.3090435 36.8899489,33.0345582 37.1086147,31.9552643 C37.764612,28.7977556 37.8221556,28.4418183 37.9027167,27.4543792 C37.9832778,26.6162042 37.9602604,26.4554583 37.7415946,26.0421117 C37.4653851,25.5139466 37.4193502,25.3187552 37.6495248,25.6287651 C37.7876295,25.8124747 37.8106469,25.8124747 37.9487516,25.6517288 C38.0408214,25.5483922 38.2709959,25.4680192 38.478153,25.4680192 C38.6853101,25.4680192 38.9039758,25.3991281 38.9730282,25.3187552 C39.065098,25.2039367 39.0305718,25.1694911 38.8003973,25.180973 C38.4321181,25.180973 38.3285396,24.9283723 38.3170308,23.9064876 C38.3055221,23.2864678 38.2709959,23.194613 38.0638389,23.1372037 C37.8796993,23.0912763 37.8336644,23.0223852 37.9027167,22.8616393 C38.0983651,22.3794016 38.1213825,22.2186557 37.9487516,22.3105105 C37.8566818,22.3679198 37.9027167,22.276065 38.0523302,22.1153191 C38.3630657,21.7823454 38.3860832,21.1967711 38.1213825,20.5308238 C38.017804,20.2667413 37.9602604,20.0371043 37.9947865,20.0026587 C38.0293127,19.9682132 38.1444,20.2208139 38.2479785,20.5537875 C38.3630657,20.8867612 38.4896617,21.2082529 38.5356966,21.2541803 C38.5817315,21.3001077 38.731345,20.9212067 38.8809584,20.3930416 C39.31829,18.8544738 39.5944994,18.4755727 40.2274793,18.6248368 C40.49218,18.6937279 40.5036887,18.682246 40.4691625,18.2803813 C40.4231276,17.763698 40.1469182,17.534061 39.8016564,17.7407343 C39.5829907,17.8785165 39.5829907,17.8670347 39.6635517,17.1092326 C39.7441128,16.3284668 39.7556215,15.1343544 39.6865692,13.6991232 C39.6405343,12.87243 40.0203222,9.10638332 40.3195491,7.41855141 C40.5267062,6.22443903 40.8719679,5.21403626 41.2287384,4.74328042 C41.4243868,4.50216157 41.4819304,4.29548828 41.4474042,4.07733313 C41.4013693,3.85917799 41.5164566,3.57213174 41.8732271,3.00952111 C42.1379277,2.59617452 42.3335761,2.24023717 42.3105586,2.21727347 C42.2875412,2.19430977 41.9652969,2.29764642 41.5855089,2.44691047 C41.2172297,2.60765637 40.8834767,2.69951116 40.8604592,2.67654746 C40.7453719,2.57321082 42.3105586,1.14946145 42.9090124,0.816487805 C44.1519547,0.116094971 45.440932,-0.205396822 45.6365803,0.13905867 C45.8092112,0.426104914 46.1889992,0.529441562 47.8922905,0.782042256 C48.8244973,0.908342603 49.8717913,1.12649775 50.2055444,1.24131625 C50.7809807,1.43650769 50.8270156,1.43650769 50.7579632,1.26427995 C50.6774021,1.0231611 51.5520653,1.70059024 51.8858183,2.12541868 C52.2310801,2.57321082 52.1620277,2.68802931 51.7477136,2.36653752 C51.3218908,2.04504573 50.8155068,1.76948133 50.4242102,1.65466284 C49.7682128,1.44798954 50.4817538,2.59617452 51.2413297,2.96359371 C51.5290478,3.08989405 51.8973271,3.31953105 52.0699579,3.4458314 C52.5418157,3.82473244 53.0366909,4.67438932 53.0366909,5.13366331 L53.0366909,5.53552805 L52.7259553,4.90402631 C52.3576761,4.19215163 52.0009056,4.00844203 52.0009056,4.53660712 C52.0009056,4.98439926 52.2195714,5.71923765 52.3461674,5.71923765 C52.403711,5.71923765 52.4267284,5.85701984 52.3922023,6.04072944 C52.3691848,6.21295718 52.3806935,6.5 52.4382372,6.68371302 L52.530307,7.01668667 L52.9561298,6.59185823 L53.3819527,6.16702979 L53.3819527,7.52188805 C53.3704439,9.14082887 53.2093218,10.4153142 52.5878506,13.871351 C52.0124143,17.0977507 51.6326264,19.6467214 51.6326264,20.2437776 C51.6326264,20.4963783 51.5865915,20.8408338 51.5290478,21.0015797 C51.4599955,21.1738074 51.4254693,21.4838173 51.4484868,21.6904906 L51.4830129,22.0808735 L51.6786613,21.736418 C51.7937485,21.5527084 51.8743096,21.4608536 51.8858183,21.5412266 C51.8858183,21.7938273 51.6556438,22.1382828 51.4830129,22.1382828 C51.3909431,22.1382828 51.310382,22.2416194 51.310382,22.3679198 C51.310382,22.4942201 51.2413297,22.5975568 51.1492599,22.5975568 C50.9651203,22.5975568 50.7924894,23.0338671 50.6198585,23.9753787 C50.5508062,24.3198342 50.4702451,24.6987353 50.4357189,24.8250356 C50.3666665,25.0202271 50.4127015,25.0317089 50.9190854,24.951336 C51.229821,24.9054086 51.6556438,24.8020719 51.8512922,24.721699 C52.2310801,24.5609531 52.4382372,24.6528079 52.277115,24.9283723 C52.2310801,24.9972634 52.023923,25.2728278 51.8282747,25.5254285 C50.8385243,26.7769501 50.7694719,27.1558511 51.2528384,28.7403464 C51.5290478,29.6474125 51.563574,29.8885314 51.5060304,30.7496701 C51.4599955,31.289317 51.356417,31.9552643 51.2758559,32.2423105 C51.1377512,32.6901027 51.1377512,32.8393667 51.2758559,33.3330863 C51.3679257,33.6545781 51.563574,34.0219973 51.7246962,34.1597795 L52.0124143,34.423862 L51.6786613,36.0542847 C51.4715042,37.0302419 51.3333995,37.5239614 51.3218908,37.2713607 C51.310382,36.7776412 51.1377512,36.260958 50.976629,36.260958 C50.9190854,36.260958 50.8385243,36.4791131 50.7924894,36.7546775 C50.7464545,37.01876 50.5853323,37.3746974 50.4472276,37.5354433 C50.2515793,37.7765621 50.1825269,38.0521265 50.1249833,38.7640012 C50.0904571,39.2692026 49.9983873,39.9121862 49.9178263,40.1992324 C49.7451954,40.8881434 49.8487739,41.1407441 50.0789484,40.5896153 C50.3091229,40.0499684 50.5392974,40.0270047 50.4357189,40.5551698 C50.3781753,40.8766616 50.4127015,40.9799982 50.6083498,41.1062986 C50.7924894,41.221117 50.850033,41.3703811 50.850033,41.7378003 C50.850033,42.1741106 50.8155068,42.220038 50.5047713,42.2889291 C50.0444222,42.3922657 49.9523524,42.3118928 49.8602826,41.7033547 C49.8257564,41.4163085 49.7451954,41.221117 49.6991605,41.2785263 C49.6531256,41.3244537 49.5035121,41.7837277 49.3538987,42.3004109 C49.1582504,43.0122856 49.1122155,43.3567411 49.1812678,43.7930514 C49.2618289,44.3441802 49.2618289,44.3441802 49.4344598,44.0686158 C49.5840732,43.8045332 49.5840732,43.8734243 49.5150209,44.7575268 C49.468986,45.2971737 49.4344598,45.8942299 49.422951,46.0779395 C49.4114423,46.2731309 49.3308812,46.4798042 49.2388114,46.5486953 C49.0201457,46.7209231 48.755445,48.5235735 48.9050584,48.7991379 C48.9856195,48.9484019 48.9741108,48.9828475 48.8590235,48.9369201 C48.7439362,48.9024745 48.6748839,48.9943293 48.6173403,49.24693 C48.5137617,49.7750951 48.5252705,49.8439862 48.7324275,49.7636133 C48.8705322,49.706204 48.8590235,49.786577 48.6633752,50.0965869 C48.4447094,50.4525242 48.4216919,50.5673427 48.5367792,51.0495804 C48.5943228,51.3481085 48.6863926,51.8762736 48.7324275,52.2207291 C48.7784624,52.5766664 48.9050584,52.9785312 49.0316544,53.1392771 L49.2618289,53.4263233 L48.9741108,53.52966 C48.7669537,53.6100329 48.6633752,53.7707788 48.5597966,54.1611617 C48.3181134,55.056746 48.2950959,55.3093467 48.3641483,55.6193566 C48.4447094,55.9064029 48.4562181,55.9064029 48.7324275,55.7226933 C48.9971282,55.5504655 49.0316544,55.5504655 49.3308812,55.7571388 C49.5840732,55.9293666 49.6876517,55.9408484 49.8833001,55.8375118 C50.2861055,55.6423203 50.5047713,55.4126833 50.4357189,55.3093467 C50.4011927,55.2519374 50.4242102,55.20601 50.4817538,55.20601 C50.5392974,55.20601 50.6313672,54.9189638 50.7004196,54.5630264 C50.8039981,53.9659703 50.7924894,53.908561 50.6083498,53.8626336 C50.3436491,53.7937425 50.3321404,53.7363333 50.5853323,53.4607689 C50.7579632,53.2655774 50.7579632,53.2540956 50.5738236,53.2540956 C50.4472276,53.2540956 50.4011927,53.300023 50.4587364,53.4033596 C50.51628,53.4952144 50.4817538,53.4837326 50.3551578,53.3803959 C50.2400706,53.2885411 50.1825269,53.1392771 50.2170531,53.0129767 C50.2976142,52.760376 50.0789484,52.6225938 49.8717913,52.7948216 C49.7221779,52.9096401 49.6991605,52.8866764 49.6991605,52.6455575 C49.6991605,52.3125839 49.9983873,52.151838 50.2400706,52.3470294 C50.3206316,52.4274024 50.4127015,52.4618479 50.4357189,52.4388842 C50.4587364,52.4159205 50.6658934,51.9451647 50.8960679,51.3940359 C51.310382,50.3836331 51.436978,49.6487948 51.2643471,49.1321115 C51.1837861,48.8909927 51.1952948,48.868029 51.4139606,48.9254382 C51.7246962,49.0058112 51.7131874,48.9598838 51.4024519,48.6613557 C51.1952948,48.4776461 51.1837861,48.4317187 51.3449082,48.4317187 C51.436978,48.4317187 51.563574,48.4891279 51.5981002,48.5465372 C51.6326264,48.6154283 51.7246962,48.6613557 51.7937485,48.6613557 C51.8628009,48.6613557 51.8052572,48.5350553 51.6671525,48.3857913 C51.310382,48.0068902 51.4024519,47.6739166 52.0009056,47.1227878 C52.4842721,46.6749957 52.5533244,46.5027679 52.3231499,46.2731309 C52.2195714,46.1697943 52.3001325,46.1353487 52.7144466,46.1353487 C53.4740225,46.1353487 53.9458802,46.0205302 54.0609675,45.8023751 C54.1185111,45.6990384 54.1990722,45.1708734 54.2451071,44.6197446 L54.3256682,43.6323055 L53.8192842,43.747124 C53.5430748,43.8045332 53.1287607,43.8274969 52.8985862,43.8045332 C52.5533244,43.7586058 52.4957808,43.7815695 52.5418157,43.9193517 C52.5993593,44.0686158 52.5648331,44.0686158 52.3691848,43.9652791 C52.1735365,43.8619425 52.1159928,43.7241603 52.1159928,43.3911866 C52.1159928,43.1271041 52.023923,42.8400579 51.9088358,42.6907938 C51.7016787,42.4267113 51.7016787,42.4267113 52.1390103,41.9559554 C52.3806935,41.6918729 52.5763419,41.4392722 52.5763419,41.3818629 C52.5763419,41.3359355 52.3922023,41.3129718 52.1735365,41.3359355 C51.8397834,41.3703811 51.7707311,41.3474174 51.7707311,41.1637078 C51.7707311,40.9914801 51.7131874,40.9570345 51.5290478,41.0029619 C51.310382,41.0603712 51.2988733,41.0488893 51.4715042,40.8192523 C52.4497459,39.464394 52.5763419,39.0166019 52.7489727,36.260958 C52.86406,34.5042349 52.9561298,33.734951 53.1287607,33.2182678 C53.2553567,32.8393667 53.3474265,32.4949112 53.3129003,32.4604657 C53.2898829,32.4145383 53.1517781,32.4030564 53.0021647,32.437502 C52.7834989,32.4834294 52.7719902,32.4719475 52.9561298,32.357129 C53.2323392,32.1734195 53.197813,32.058601 52.8065164,31.8978551 C52.2540975,31.6682181 52.2886237,31.5648814 52.990656,31.2548715 C53.6926882,30.9448615 53.6926882,30.7496701 52.990656,30.7496701 C52.6569029,30.7496701 52.6569029,30.7496701 52.7259553,30.2100231 C52.7604815,29.9000132 52.9331124,29.3259207 53.1057432,28.9125741 C53.3359178,28.3614453 53.4164788,27.9710624 53.4279876,27.39697 L53.4279876,26.6162042 L53.7732493,26.6162042 C54.0609675,26.6047223 54.0954936,26.5817586 53.9343715,26.5013857 C53.830793,26.4324946 53.7157057,26.168412 53.6696708,25.9158113 C53.6121272,25.5828377 53.5200574,25.4220918 53.3589352,25.3761644 C53.1632869,25.330237 53.1747956,25.2957915 53.4855312,25.1120819 C53.6811795,24.9972634 53.911354,24.7561445 53.9919151,24.5839168 C54.291142,24.0213061 54.5903688,23.8261147 55.1082615,23.8835239 C55.3614535,23.9064876 55.5686105,23.8950058 55.5686105,23.8490784 C55.5686105,23.6653688 55.2003313,23.493141 54.8895957,23.5390684 L54.5443339,23.5849958 L54.6133863,23.0453489 C54.6594212,22.6205205 54.624895,22.4023653 54.4522641,22.1038372 C54.3141594,21.8742002 54.2566158,21.6445632 54.3026507,21.5527084 C54.3486856,21.4608536 54.417738,20.978616 54.4637729,20.4734146 C54.5558427,19.290784 54.7054561,18.7855827 55.0622266,18.3492724 C55.2924011,18.0851898 55.3154186,18.0048169 55.1773139,18.0048169 C55.0392091,18.0048169 54.9931742,17.8899984 54.9931742,17.5914703 C54.9931742,17.2125692 54.9701568,17.1781237 54.7399823,17.2470148 C54.5903688,17.2814603 54.3601943,17.3503514 54.2105809,17.384797 L53.9573889,17.4536881 L54.164546,16.9599685 C54.291142,16.6844041 54.417738,16.316985 54.4637729,16.1332754 C54.5213165,15.8806747 54.5903688,15.8232654 54.8550695,15.8462291 C55.2578749,15.8691928 55.4420145,15.7658562 55.5801192,15.398437 C55.7067152,15.0654633 55.591628,13.9632058 55.4420145,14.0550606 C55.2348575,14.1698791 55.3499447,13.9172784 55.6376629,13.5843047 L55.925381,13.2398492 L55.8678374,13.7106051 C55.7872763,14.2961794 55.9944334,14.6521167 56.3281864,14.4684071 C56.4893086,14.3765524 56.5353435,14.2387702 56.5008173,13.8943147 C56.4662911,13.3087403 56.7540093,12.723166 57.0877623,12.723166 L57.3294455,12.723166 L57.0647448,13.0102122 C56.8460791,13.2398492 56.8230616,13.3202222 56.9496576,13.4694862 C57.1337972,13.6991232 57.3639717,13.6876414 57.6171637,13.4465225 C57.7322509,13.331704 57.9048818,13.2283674 57.9969516,13.2054037 C58.3422134,13.1250307 58.3191959,12.9757667 57.9278993,12.7116841 C57.7092335,12.5624201 57.5250939,12.4016742 57.5250939,12.3672286 C57.5250939,12.114628 59.4585598,11.574981 60.3217142,11.574981 C61.587674,11.5864629 63.2679479,12.2409283 64.3037333,13.1479944 C64.9136957,13.6876414 66.1566381,15.1573181 66.202673,15.398437 C66.3177602,16.0299387 66.6054784,16.2136483 66.6284958,15.6740014 C66.6400046,15.5017736 66.663022,15.4788099 66.6975482,15.6051103 C66.7205656,15.7084469 66.6400046,15.9840113 66.5134086,16.2136483 C66.2371992,16.695886 66.1681468,17.7751799 66.4213388,17.7751799 C66.4903911,17.7751799 66.8816878,17.6259158 67.2729845,17.4422062 C67.6642811,17.2470148 68.0210516,17.1436781 68.0440691,17.1896055 C68.0785953,17.2355329 67.8944556,17.5799884 67.6412637,17.9474076 C67.3995804,18.3148268 67.1924234,18.6707642 67.1924234,18.7511371 C67.1924234,18.8200282 67.4225979,19.1874474 67.710316,19.5433847 C68.2742436,20.2782231 68.3548047,20.6800879 68.0555778,21.2656622 C67.8829469,21.587154 67.8944556,21.6215995 68.1936825,21.9316095 C68.3663134,22.1038372 68.5964879,22.2531013 68.7115752,22.2531013 C68.9647671,22.2531013 68.9647671,22.2531013 68.7576101,22.7927482 C68.6655403,23.0338671 68.5619617,23.3323951 68.5159268,23.4586955 C68.4468745,23.6653688 68.4353657,23.6653688 68.3087698,23.4012862 C68.1246302,23.0338671 67.7678597,22.9534941 67.7678597,23.2749859 C67.7678597,23.4012862 67.6757899,23.5275866 67.5491939,23.573514 C67.3995804,23.6194414 67.3190194,23.7916691 67.2729845,24.1476065 C67.2269496,24.4231709 67.0428099,24.9283723 66.8586703,25.2613459 C66.5709522,25.7780291 66.536426,25.9043295 66.663022,26.0650754 C66.7781093,26.2258213 66.8356529,26.2373031 66.9507401,26.1224846 C67.0543187,26.019148 67.0773361,26.1110028 67.0543187,26.5932405 C67.0313012,27.0525145 66.9737576,27.2017785 66.8126354,27.2591878 C66.6515133,27.3051152 66.6169871,27.4199337 66.6400046,27.7414255 C66.663022,28.0169898 66.6169871,28.2121813 66.5018998,28.3040361 C66.3522864,28.4303364 66.3522864,28.464782 66.5018998,28.5566368 C66.6400046,28.6599734 66.6400046,28.6829371 66.4673737,28.7518282 C66.2947428,28.8207193 66.2832341,28.8551649 66.4213388,29.0159108 C66.7435831,29.3948118 66.8931965,29.9344588 66.7435831,30.2444687 C66.6745307,30.4052146 66.5709522,30.5085512 66.5134086,30.4741057 C66.3062515,30.3478053 66.5479347,30.9907889 66.7550918,31.140053 C66.9622489,31.289317 66.9392314,31.3007989 66.5249173,31.2433896 C66.2602166,31.2089441 65.9609897,31.2204259 65.8459025,31.2663533 C65.6732716,31.3352444 65.6962891,31.3811718 66.0415508,31.5648814 L66.4443562,31.7945184 L66.0185334,31.7256273 C65.7768501,31.6911818 65.5812018,31.6682181 65.5812018,31.6911818 C65.5812018,31.7141455 65.6847803,32.0011917 65.8113763,32.3341653 C66.0300421,32.9082578 66.0300421,32.9771489 65.8689199,33.4593866 C65.7768501,33.7464329 65.6962891,34.0908884 65.6962891,34.2401524 C65.6962891,34.6305353 66.0070246,35.3079644 66.2371992,35.4457466 C66.3522864,35.5031559 66.40983,35.5950107 66.3637951,35.6409381 C66.3177602,35.6868655 66.1796555,35.6524199 66.076077,35.5605651 C65.9034461,35.4342648 65.8919374,35.4342648 66.0185334,35.572047 C66.2487079,35.8361295 66.1796555,36.0772484 65.742324,36.6628227 C65.2934837,37.2369152 65.3280098,37.4091429 65.8919374,37.4091429 C66.1796555,37.4091429 66.3407777,37.5813707 66.1566381,37.6961892 C65.949481,37.8224895 66.0300421,38.2702817 66.3637951,38.7984468 C66.8011267,39.464394 66.8356529,39.6021762 66.7090569,39.8662588 C66.6054784,40.0499684 66.5134086,40.0614502 66.0070246,40.004041 C65.489132,39.9351499 65.4430971,39.9466317 65.5812018,40.1073776 C65.6617629,40.1992324 65.9264636,40.3140509 66.1796555,40.3484965 C66.7090569,40.4403513 66.7781093,40.5207242 66.5594435,40.8077705 C66.4328475,40.9685164 66.3637951,40.9914801 66.2947428,40.8881434 C66.2256904,40.7733249 66.0990944,40.7848068 65.7308152,40.922589 C65.2819749,41.0948167 64.9712393,41.4277903 65.2474488,41.4277903 C65.3165011,41.4277903 65.3280098,41.4851996 65.2934837,41.5426088 C65.2589575,41.6114999 65.0633091,41.6574273 64.8676608,41.6574273 C64.5569252,41.6574273 64.5339078,41.680391 64.6720125,41.8526188 C64.8101172,42.0248465 64.8101172,42.0363284 64.6374863,41.9674373 C64.3382594,41.8641006 64.3842943,41.990401 64.6950299,42.1281832 C64.9136957,42.220038 64.9136957,42.2315198 64.6144688,42.1741106 C64.2346809,42.0937376 63.7398057,42.4267113 63.9929977,42.598939 C64.2576984,42.7596849 64.522399,42.7022757 64.9136957,42.3922657 C65.1208528,42.2315198 65.0402917,42.3348565 64.7295561,42.6333846 L64.1656285,43.1615497 L64.5684339,43.5863781 C65.0402917,44.0915795 65.4661145,44.6886357 65.4661145,44.8608634 C65.4661145,44.9412364 65.3740447,44.9412364 65.1668877,44.8723453 C64.7525736,44.7115994 64.5799427,44.7230812 64.7525736,44.895309 C64.9942568,45.1364278 64.902187,45.4119922 64.4188205,45.8483025 C63.9929977,46.2272035 63.9584715,46.2960946 64.0735587,46.5486953 C64.1426111,46.7094412 64.2922245,46.8587053 64.3958031,46.8931508 C64.9712393,47.0768604 65.1553789,47.1916789 65.028783,47.2720519 C64.9252044,47.3294611 64.9712393,47.4098341 65.1783964,47.5131707 C65.3395186,47.5935437 65.4661145,47.7083622 65.4661145,47.7657714 C65.4661145,47.8920717 65.3855535,47.8805899 65.109344,47.7428077 C64.7180474,47.5246526 64.6605037,47.7313259 64.9597306,48.3054183 C65.2589575,48.9024745 65.3049924,49.3502667 65.1208528,49.6947222 C64.9482219,50.0276958 65.23594,50.1884417 65.8574112,50.0965869 C66.3062515,50.0276958 66.3868126,50.0391777 66.3868126,50.1999235 C66.3868126,50.3032602 66.3177602,50.3836331 66.2256904,50.3836331 C66.0530595,50.3836331 65.9264636,50.9462438 65.9264636,51.7499733 C65.9264636,52.1748017 65.949481,52.232211 66.0990944,52.1059106 C66.1911643,52.0370195 66.3177602,52.002574 66.3868126,52.0485014 C66.5939696,52.1748017 66.5134086,51.7499733 66.2717253,51.4399633 L66.0300421,51.1529171 L66.329269,50.8429071 C66.5134086,50.6477157 66.6169871,50.4180787 66.6169871,50.1769598 C66.6169871,49.8325044 66.5939696,49.8095407 66.329269,49.8784318 C66.0645683,49.9473229 66.0415508,49.9243592 66.0415508,49.5339763 C66.0415508,49.2124845 66.1451293,49.0058112 66.4788824,48.6269101 C66.7205656,48.3628276 67.1463885,47.8346625 67.4225979,47.4672433 C68.0785953,46.571659 68.4008396,46.2501672 69.8739564,45.044573 C70.5529713,44.4819624 71.0938814,43.9652791 71.0593552,43.8849062 C71.0018116,43.7241603 71.3700908,43.3567411 71.8534572,43.1156223 C72.0491056,43.0237675 72.578507,42.8974671 73.038856,42.8400579 C73.7869231,42.7482031 73.9480453,42.7596849 74.4889554,42.9778401 C75.7434065,43.4830414 77.8495033,45.1938371 78.9543409,46.5946227 C79.4261987,47.1916789 80.1972833,48.5924646 80.1972833,48.8565471 C80.1972833,48.9598838 80.2203008,49.017293 80.2548269,48.9828475 C80.3123706,48.9254382 80.1512484,47.9265173 80.0131437,47.4557615 C79.9556001,47.2835337 79.9786175,47.26057 80.0821961,47.3524248 C80.3468967,47.6050255 80.4044404,48.3628276 80.4389665,51.5088544 L80.4734927,54.6893268 L80.2203008,54.6778449 C79.9901262,54.6663631 79.9671088,54.7237723 79.9671088,55.4241652 C79.9671088,55.9523303 79.9325826,56.1360399 79.8520215,56.0097395 C79.7139168,55.7915844 79.7024081,54.7122905 79.8405128,54.5630264 C79.8980564,54.5056172 80.0361612,53.8511518 80.1397397,53.1048315 C80.3468967,51.7384914 80.335388,50.5214153 80.1052135,49.9243592 C80.0131437,49.6717585 79.9901262,49.7291677 79.9210739,50.3262239 C79.7139168,52.4503661 79.6103383,53.1852045 79.4031812,54.0693069 C79.1384806,55.1600826 78.7586926,57.5253437 78.5860617,59.0409478 C78.5285181,59.5920766 78.4249396,60.1087599 78.3673959,60.1891328 C78.3098523,60.2580239 78.2177825,60.6484068 78.1487302,61.0617534 C78.0336429,61.8310373 78.1026952,62.5543939 78.321361,62.9562586 C78.4364483,63.1399682 78.4594657,63.0940408 78.5285181,62.623285 C78.6320966,61.9688195 78.7471839,62.0951199 78.8737799,62.9562586 C78.9428322,63.5073874 78.9313235,63.5418329 78.6781315,63.5418329 C78.4249396,63.5418329 78.0796778,63.2662686 77.9760993,62.9792223 C77.9530818,62.8988494 77.8955382,62.8758857 77.8495033,62.9103312 C77.8149771,62.9447768 77.861012,63.3236778 77.9760993,63.7485062 C78.1372214,64.4259354 78.1487302,64.6440905 78.0221342,65.4018926 C77.9185556,66.0448762 77.9070469,66.3778498 77.9991167,66.6074868 C78.1832563,67.0897245 78.1487302,67.204543 77.9185556,66.9174968 L77.6998899,66.6534142 L77.2165234,67.9049358 C76.7791918,69.0071934 76.7216482,69.2368304 76.7676831,69.8683322 C76.8022093,70.4194609 76.7791918,70.5916887 76.6641045,70.5916887 C76.3763864,70.5916887 75.6628454,71.027999 75.2830575,71.4183819 C75.0298655,71.6939463 74.926287,71.9121014 74.9147783,72.1991477 C74.9147783,72.9569497 74.5695165,75.1270193 74.3278333,75.9307488 C74.0286064,76.9411516 72.8086815,81.8668651 72.4864372,83.3939512 C71.4391431,88.3541102 71.5081955,88.0096547 70.7025847,92.7057313 C70.4263753,94.3476358 69.977535,96.6095602 69.7128343,97.7347815 C69.2524853,99.7211415 69.2524853,99.7785507 69.4596423,100.008188 C69.6437819,100.214861 69.6667994,100.467462 69.6552907,102.614568 C69.6552907,104.417218 69.6092558,105.163538 69.4596423,105.749113 C69.2755027,106.495433 69.2755027,106.529878 69.517186,107.069525 C69.8049041,107.735473 69.9315001,107.827327 70.2537444,107.620654 C70.4148665,107.517317 70.2192182,107.942146 69.6437819,108.918103 C68.7806275,110.410744 66.8356529,114.257163 65.8689199,116.404269 C65.0863266,118.126547 63.1873869,121.892593 62.4163023,123.23597 C60.5288713,126.508297 58.1926,129.32135 55.9944334,130.974736 C55.3039098,131.502902 55.1658051,131.789948 55.6031367,131.80143 C55.798785,131.80143 55.7527501,131.847357 55.3959796,132.008103 C54.7629997,132.295149 54.5558427,132.570714 54.417738,133.282588 C54.3486856,133.627044 54.2566158,133.948536 54.2105809,133.994463 C54.1070024,134.0978 52.2080626,134.430773 51.7016787,134.430773 C51.3333995,134.430773 50.850033,134.752265 50.850033,134.993384 C50.850033,135.050793 50.9881377,135.200057 51.1492599,135.314876 L51.4599955,135.544513 L50.9190854,135.854523 C50.389684,136.164533 48.0879389,137.083081 47.454959,137.232345 C46.0854206,137.5768 44.2094984,137.76051 42.2760325,137.749535 C41.1366686,137.737546 39.9512699,137.691619 39.6290256,137.645691 Z M10.8572116,117.414672 C10.6615632,116.725761 10.546476,116.553533 10.1321618,116.392787 C9.90198733,116.312414 9.67181282,116.22056 9.63728664,116.197596 C9.60276047,116.186114 9.51069066,116.300933 9.44163831,116.450197 C9.32655105,116.714279 9.36107723,116.771688 9.90198733,117.207999 C10.5694934,117.736164 10.9722988,117.816537 10.8572116,117.414672 Z M35.9001985,116.978362 C36.0267944,116.909471 36.1533904,116.691315 36.1994253,116.507606 C36.256969,116.197596 36.3030039,116.16315 36.5677046,116.232041 C37.7761207,116.542051 38.938502,116.519088 39.5829907,116.16315 C39.8937263,116.002404 39.9512699,116.071296 39.8016564,116.461678 C39.7326041,116.633906 39.6980779,116.794652 39.7210954,116.817616 C39.7441128,116.840579 40.0203222,116.78317 40.3310578,116.691315 C41.0330901,116.484642 41.1251599,116.47316 40.9640377,116.679834 C40.7223545,116.96688 41.6430525,116.840579 41.9422794,116.553533 C42.0918928,116.404269 42.2875412,116.289451 42.379611,116.289451 C42.4946982,116.289451 42.5407331,116.186114 42.5292244,115.979441 C42.506207,115.72684 42.5637506,115.646467 42.7709077,115.623503 L43.0240996,115.589058 L42.7939251,115.29053 C42.379611,114.762365 42.7478902,114.647546 43.7146232,115.026447 C44.140446,115.187193 44.5662688,115.256084 45.2683011,115.256084 C46.2695602,115.256084 46.5457696,115.10682 45.8782636,114.934592 C45.6826152,114.888665 45.4984756,114.785328 45.4639494,114.704955 C45.3948971,114.498282 46.1429643,114.107899 46.6033133,114.107899 C47.5470288,114.107899 48.7669537,113.751962 48.8705322,113.453434 C48.9280758,113.24676 48.4677268,113.258242 47.8462556,113.476397 L47.3398717,113.648625 L47.6275899,113.418988 C48.041904,113.086015 49.089198,112.718595 49.8142477,112.638222 C50.4242102,112.580813 50.4702451,112.546368 51.3679257,111.616338 C52.3346586,110.617417 52.4152197,110.38778 51.5520653,111.065209 C50.9651203,111.535965 50.7809807,111.593374 51.1952948,111.191509 C51.356417,111.030763 51.8743096,110.686308 52.3461674,110.422225 C53.577601,109.744796 53.9573889,109.434786 54.1990722,108.895139 L54.417738,108.424384 L54.417738,108.941067 L54.4292467,109.45775 L54.7054561,109.136258 C54.8665783,108.964031 54.9931742,108.734394 54.9931742,108.631057 C54.9931742,108.493275 55.0277004,108.481793 55.1427877,108.585129 C55.3269273,108.734394 55.5455931,108.539202 55.8333112,107.96511 C55.925381,107.7814 56.2936602,107.264717 56.6504307,106.816925 C57.2028496,106.116532 57.2603932,106.001713 57.0877623,105.909858 C56.9841838,105.852449 56.8690965,105.79504 56.8575878,105.772076 C56.8115529,105.737631 58.0084603,102.603086 58.2961785,101.983066 C58.4918268,101.592683 58.4918268,101.569719 58.2846698,101.408973 C58.1695825,101.3286 58.0084603,101.236746 57.939408,101.213782 C57.8588469,101.190818 57.8933731,101.064518 58.0199691,100.869326 C58.2386349,100.524871 58.6184228,99.1585308 59.0787718,96.9999431 C59.4240336,95.4269297 59.6887343,94.6461639 60.080031,94.1179988 C60.2641706,93.87688 60.3217142,93.647243 60.2986967,93.337233 C60.287188,93.0961142 60.4252927,92.2579392 60.6209411,91.4771734 C60.8165894,90.7078894 60.9777116,89.9615692 60.9777116,89.8352689 C60.9777116,89.6860048 61.1158163,89.5137771 61.3114646,89.4104404 C61.6682351,89.2037671 61.71427,89.0200575 61.8523747,87.4011167 C61.9329358,86.4481232 61.8523747,85.8051396 61.6797438,85.9084762 C61.6222002,85.9429218 61.5531478,85.8625488 61.5071129,85.7132848 C61.3805169,85.2195653 61.4380606,84.6454728 61.7257787,83.6809974 C61.8869009,83.1413505 62.1285841,82.3605847 62.2551801,81.9357562 C62.3817761,81.4879641 62.5428982,81.1664723 62.6234593,81.189436 C62.7270378,81.2009179 62.7845815,80.5464524 62.8421251,78.6863928 C62.88816,77.2970889 62.9572124,75.2762834 62.9917385,74.1855077 L63.0722996,72.2221114 L62.7730727,72.0269199 C62.5313895,71.866174 62.4968633,71.7972829 62.6004419,71.6595007 C62.6810029,71.5791278 62.7040204,71.4757911 62.6694942,71.4413456 C62.634968,71.4069 62.4968633,71.5791278 62.3702674,71.8317285 C62.1170754,72.325448 62.1516016,72.4287846 62.554407,72.4287846 C62.8191077,72.4287846 62.8191077,72.4287846 62.634968,72.7962038 C62.5083721,73.0373227 62.427811,73.5080785 62.4163023,74.1051347 C62.3932848,74.771082 62.301215,75.2188741 62.0940579,75.7355574 L61.8178485,76.4359502 L62.0825492,76.6196598 L62.3587586,76.7918875 L61.7833223,77.5841352 C61.0582726,78.5830561 60.0109786,79.5475315 59.2859289,79.9034688 C58.5954054,80.2364425 57.5135851,80.3282973 57.1453059,80.0871784 C56.9151314,79.9379144 56.8575878,79.9379144 56.6619395,80.0871784 C56.4317649,80.2479243 55.8563287,80.2364425 54.9011044,80.0527329 L54.5328252,79.9838418 L54.5328252,81.3272182 L54.5328252,82.6820765 L55.3729622,83.5087696 C56.0749944,84.2091625 57.2949194,85.9544036 57.2949194,86.2644136 C57.2949194,86.310341 57.1107798,86.310341 56.892114,86.2758954 C56.4317649,86.1840406 56.4087475,86.2414499 56.6849569,86.7925787 C56.9381489,87.3092619 57.0187099,88.3770739 56.8345703,89.0545031 C56.7540093,89.3530312 56.5008173,89.9615692 56.2591341,90.3978795 C56.0289595,90.8456716 55.7412414,91.4656915 55.6376629,91.7757015 C55.5225756,92.0971933 55.3499447,92.5335035 55.2463662,92.7516587 C55.1542964,92.9698138 55.0622266,93.4635334 55.0622266,93.8653981 C55.0507179,94.3820814 54.9931742,94.6461639 54.8435608,94.7839461 C54.7284736,94.9102464 54.6479125,94.9332101 54.6479125,94.8413553 C54.6479125,94.565791 54.4292467,94.715055 53.9688977,95.2891475 C53.4625137,95.9321311 52.9446211,96.3684414 52.8410426,96.2651047 C52.8065164,96.2306592 52.8525513,96.1043588 52.9561298,95.9895403 C53.2783741,95.6450848 53.2093218,95.4728571 52.7834989,95.5647119 C52.5763419,95.6106393 52.277115,95.7139759 52.1159928,95.7943489 C51.9548707,95.8747218 51.4024519,96.0354677 50.9075767,96.1388044 C48.4447094,96.6554876 46.1084381,95.6106393 44.7964434,93.4061241 C44.3015682,92.5794309 43.9678151,92.1775662 43.7606581,92.1775662 C43.6225533,92.1775662 43.4844486,92.5335035 43.4844486,92.9468501 C43.4844486,93.3716786 43.2772916,93.3487149 42.9895734,92.9009227 L42.713364,92.4646124 L42.9780647,91.89052 C43.1852218,91.4656915 43.2542741,91.1097542 43.2542741,90.5356617 L43.2542741,89.7548959 L42.6558204,89.4908134 C41.8847358,89.1463579 41.5509827,88.8019024 41.7466311,88.5722654 C41.8617183,88.4344832 41.8617183,88.3426284 41.7466311,88.1359551 L41.6085264,87.8718726 L41.8962445,88.1359551 C42.0458579,88.2737373 42.2069801,88.3885558 42.253015,88.3885558 C42.3911197,88.3885558 42.3335761,87.9637273 42.1839626,87.8259452 C42.0918928,87.7570541 42.0228405,87.4929715 42.0113318,87.2403708 C41.999823,86.9762883 41.919262,86.6318328 41.8271922,86.459605 C41.7351223,86.2873773 41.5740002,85.851067 41.4704217,85.4836478 C41.3208082,84.9784464 41.2287384,84.8291824 41.0676163,84.8291824 C40.8029156,84.8291824 40.5612323,85.1851197 40.3886015,85.8051396 C40.3195491,86.0577403 40.2044618,86.4940506 40.1239008,86.7810968 L39.9857961,87.2977801 L39.905235,86.6088691 C39.6750605,84.5995454 39.6635517,84.3010173 39.8016564,83.9680436 L39.9397612,83.6235881 L40.1239008,83.8991525 C40.238988,84.0598984 40.4116189,84.2895354 40.5151974,84.4158358 C40.7108458,84.6569546 40.7108458,84.6454728 40.6417934,84.2550899 C40.5267062,83.6235881 40.1814444,83.0380138 39.6865692,82.6361491 C39.2032027,82.2457662 39.1111329,81.9357562 39.3528161,81.4650004 C39.5484645,81.0975812 39.5484645,81.0975812 39.8016564,81.3961093 L40.0433397,81.6716737 L39.9742873,81.3846274 C39.7556215,80.5234887 39.4794121,80.2479243 38.7888886,80.2249606 C38.5932403,80.2134788 38.5472054,80.1905151 38.6853101,80.1560695 C38.8579409,80.1101421 38.7888886,79.9838418 38.2940134,79.3408582 C37.4078415,78.2041551 37.4078415,78.1926732 37.6495248,78.3878647 C37.8221556,78.5256469 37.8451731,78.514165 37.8451731,78.364901 C37.8451731,78.2730462 37.430859,77.9285907 36.924475,77.6070989 C36.4180911,77.2741252 36.003777,76.987079 36.003777,76.9526334 C36.003777,76.9296697 36.130373,76.987079 36.3030039,77.0904156 C36.6827918,77.3430163 36.8669314,77.1822704 36.6943005,76.7229965 C36.3720562,75.8963033 35.7160589,75.5288841 34.7147997,75.6207389 C34.1738896,75.6666663 34.0012587,75.6322207 33.8171191,75.4714748 C33.5869446,75.2648015 33.4948748,74.8859005 33.7020319,75.0122008 C33.8401366,75.1040556 33.8516453,74.8399731 33.7135406,74.6218179 C33.6444882,74.5069995 33.5639272,74.4955176 33.3797876,74.5988542 C32.9079298,74.8514549 32.7352989,74.7825638 30.7097632,73.6573426 C29.8466088,73.1751049 29.3977685,73.1291775 29.0294893,73.473633 L28.7647886,73.7262337 L28.6842275,73.4162237 C28.6497013,73.243996 28.6497013,73.0717682 28.6842275,73.0258408 C28.7302624,72.9913953 29.1560853,72.9684316 29.627943,72.9913953 L30.4910974,73.0258408 L30.2033793,72.555085 C30.0422571,72.3024843 29.9041524,72.0613655 29.9041524,72.0269199 C29.9041524,71.9924744 30.1458357,72.095811 30.4335538,72.2680388 C31.055025,72.6354579 31.0780424,72.4402665 30.46808,71.946547 C30.0537659,71.6135733 29.0985416,71.3609726 28.5461228,71.4528274 C28.3734919,71.4757911 28.0052127,71.5332004 27.7290033,71.5676459 L27.2341281,71.636537 L27.3031804,71.257636 C27.4643026,70.4539065 27.4643026,70.4424246 26.9118838,70.2816787 C26.6241656,70.1898239 26.1868341,70.1438965 25.9336421,70.1553784 L25.4732931,70.1898239 L25.4963105,70.798362 C25.519328,71.3839363 25.519328,71.3954182 25.2085924,71.3954182 C24.932383,71.3954182 24.8403132,71.3035634 24.5756125,70.7639164 C24.2763856,70.1553784 24.2533682,70.1324147 23.8045279,70.1324147 C23.171548,70.1324147 21.871062,69.6616589 21.1114861,69.1564575 C19.8915612,68.352728 19.0284067,67.204543 18.2918483,65.4133745 C17.9120604,64.5063083 17.5783073,64.0470343 17.3020979,64.0470343 C17.0143798,64.0470343 16.6921354,64.4603809 16.6115744,64.9426186 C16.542522,65.3559652 16.5885569,65.4822656 16.8877838,65.9300577 C17.1755019,66.3434043 17.5437811,67.4571437 17.4286939,67.5719622 C17.4171852,67.5834441 17.2215368,67.5489985 16.9913623,67.5030711 L16.5655395,67.3997345 L16.4964871,68.1690184 C16.4044173,69.1105301 16.2432951,69.6386952 16.0361381,69.7190681 C15.8980334,69.7649955 15.8865246,69.9257414 15.9325595,70.4653883 C15.9785945,70.8442894 15.955577,71.3724545 15.8865246,71.6480189 C15.7138938,72.3024843 15.8174723,72.6584216 16.1512253,72.6584216 C16.4274347,72.6584216 16.8992925,72.1417384 17.6473597,71.027999 C17.8890429,70.6605798 18.0962,70.3620517 18.1077087,70.3620517 C18.1422349,70.3620517 17.4171852,72.704349 17.1639932,73.4506693 C17.0604147,73.7377155 16.8072227,74.1510621 16.6000656,74.3692173 L16.2202777,74.7825638 L16.208769,73.9214251 L16.1972602,73.0602864 L16.0131206,73.5195604 C15.8174723,74.0362436 15.7599287,75.5633296 15.9095421,76.5737324 C16.0016119,77.2052341 16.0016119,77.2052341 15.5642803,77.6645081 L15.1269488,78.1123003 L15.0463877,77.1937523 C14.9773353,76.298168 14.8162132,75.7585211 14.5975474,75.7585211 C14.3788816,75.7585211 14.3558641,76.0226036 14.4939688,76.8492968 C14.6320736,77.7448811 14.5745299,78.0663729 14.3673729,77.5841352 C14.2637943,77.3544982 14.2637943,77.3774619 14.321338,77.7563629 C14.4134078,78.3993465 14.8162132,79.4212311 15.0694051,79.6738318 C15.3225971,79.9264325 15.3571233,80.0527329 15.1269488,79.9723599 C14.9428091,79.9034688 14.8277219,80.6268254 14.8277219,81.8668651 C14.8277219,82.4754032 14.7931957,82.6246672 14.6665997,82.5787398 C14.3673729,82.4639213 14.3673729,82.8428224 14.655091,84.553618 C14.7011259,84.8406642 14.6781085,84.9210372 14.528495,84.8980735 C14.2753031,84.8751098 14.0106024,85.6329119 14.0106024,86.4136776 C14.0106024,87.0911068 14.2177594,87.5159352 14.8737568,88.1474369 C15.3456145,88.6067109 15.4837192,89.1004305 15.2765622,89.59415 L15.1269488,89.9386055 L15.0809139,89.6515593 C15.034879,89.3759949 15.0233702,89.3874767 14.8852655,89.7663778 C14.7586695,90.1452788 14.7586695,90.1797243 15.0809139,90.3749158 C15.5182454,90.6389983 15.8059636,91.3049456 16.1512253,92.8894409 C16.6230831,95.0365468 16.9338187,95.6450848 17.6013248,95.7943489 C17.9005516,95.86324 17.9120604,95.8862037 17.7969731,96.2076955 C17.7394295,96.3914051 17.6243422,96.5406691 17.5552899,96.5406691 C17.4747288,96.5406691 17.129467,96.092877 16.7842052,95.55323 C16.1742428,94.6002365 16.1512253,94.5772728 16.082173,94.8872827 C16.0361381,95.0709923 16.0016119,95.4498934 15.9901032,95.7369396 C15.955577,96.322514 15.8865246,96.2191773 15.5872978,95.2202564 L15.4261756,94.6461639 L15.4722105,95.1628471 C15.6448414,96.6669695 15.9440683,97.3329167 16.9338187,98.3433195 C17.5667986,98.997785 17.589816,99.2274219 17.0258885,99.4226134 C16.8417489,99.4915045 16.6576093,99.6292867 16.6115744,99.7211415 C16.5310133,99.9507785 17.0489059,100.995627 17.4862375,101.477864 C17.8660254,101.891211 18.0386563,101.845284 18.2803396,101.248228 C18.4414617,100.869326 18.6946537,100.800435 18.9133195,101.087482 C19.016898,101.225264 19.0053893,101.454901 18.8672846,102.063439 L18.6946537,102.867168 L19.1089678,103.291997 C19.6153517,103.80868 20.2943666,104.830565 20.8698028,105.898377 C21.6293787,107.310644 22.1242539,108.011037 22.4810244,108.183265 C22.6766728,108.27512 22.9643909,108.539202 23.1485305,108.757357 C23.5513359,109.27404 24.1728071,109.698869 25.5308367,110.376298 C27.0614972,111.145582 27.4873201,111.432628 27.4182677,111.62782 C27.3837415,111.719674 27.4873201,112.041166 27.6369335,112.339694 C27.9246516,112.890823 27.9361604,112.902305 28.9259108,113.189351 C29.8005739,113.441952 29.881135,113.487879 29.6509605,113.591216 C29.3517336,113.717516 28.7532799,114.165308 28.7532799,114.257163 C28.7532799,114.349018 29.7430303,114.567173 30.1573444,114.567173 C30.5256236,114.567173 30.5371323,114.578655 30.2609229,114.716437 C30.1113095,114.785328 29.9962222,114.911629 29.9962222,114.969038 C30.007731,115.164229 30.4795887,115.23312 31.7340398,115.244602 C32.8388775,115.256084 32.9194385,115.244602 32.7122815,115.072375 C32.4936157,114.900147 32.4936157,114.900147 32.7237902,114.957556 C32.8503862,114.992002 33.3797876,115.095338 33.9091889,115.187193 C34.829887,115.359421 35.543428,115.634985 35.543428,115.807213 C35.543428,115.864622 35.3938145,116.013886 35.2211837,116.140187 C34.9104481,116.369824 34.8989393,116.369824 34.6342387,116.16315 C34.3235031,115.91055 33.8516453,115.887586 33.402805,116.082777 L33.0920694,116.232041 L33.5984533,116.34686 C33.9782413,116.438715 34.1048373,116.53057 34.1048373,116.691315 C34.1048373,117.162071 35.2211837,117.334299 35.9001985,116.978362 Z M44.6238125,115.393866 C44.2785507,115.370903 43.806693,115.41683 43.553501,115.485721 L43.1161694,115.612022 L43.3693614,115.887586 L43.6110446,116.151668 L44.4281641,115.784249 L45.2452837,115.428312 L44.6238125,115.393866 Z M4.37779904,105.152056 C3.9980111,104.015353 3.92895875,103.889053 3.61822315,103.774234 C3.43408354,103.705343 3.23843521,103.693861 3.19240031,103.739789 C3.12334795,103.80868 4.64249973,106.41506 4.75758699,106.41506 C4.76909571,106.41506 4.59646483,105.852449 4.37779904,105.152056 Z M59.7923128,104.968347 C59.8728739,104.658337 59.9304175,104.359809 59.9074001,104.313881 C59.8958913,104.267954 59.6887343,104.417218 59.447051,104.669819 C59.0442457,105.083165 59.0327369,105.117611 59.2053678,105.35873 C59.4585598,105.726149 59.6196819,105.622812 59.7923128,104.968347 Z M62.5774244,82.8657861 C62.6579855,82.4179939 62.6925117,82.027611 62.6694942,82.0046473 C62.6464768,81.9702018 62.4623372,82.3146573 62.2666888,82.7394857 C61.9559532,83.405433 61.8984096,83.6580337 61.9099183,84.3813902 L61.9099183,85.2310471 L62.1861277,84.4617632 C62.3357412,84.0369347 62.5083721,83.3250601 62.5774244,82.8657861 Z M40.7223545,81.9127925 C40.7223545,81.5568552 40.5382149,81.4305548 40.3080404,81.6257463 C40.1584269,81.7405648 40.1699357,81.7864922 40.3310578,81.9702018 C40.5957585,82.2687299 40.7223545,82.2457662 40.7223545,81.9127925 Z M54.3947205,80.6727528 C54.417738,80.1790332 54.3832118,79.891987 54.3026507,79.891987 C54.2451071,79.891987 54.1875634,79.9379144 54.1875634,79.9953236 C54.1875634,80.0527329 54.0724762,80.121624 53.9343715,80.1445877 C53.7732493,80.1675514 53.6696708,80.2594062 53.6811795,80.3857065 C53.6811795,80.4890432 53.6926882,80.7875713 53.704197,81.0516538 C53.7272144,81.4879641 53.7502319,81.5109278 54.0494587,81.4764822 C54.3486856,81.4420367 54.3601943,81.419073 54.3947205,80.6727528 Z M53.9919151,79.9379144 C54.0954936,79.8230959 53.8077755,79.5704952 53.6351446,79.6279044 C53.5315661,79.6738318 53.5200574,79.7312411 53.6236359,79.8460596 C53.7617406,80.0182873 53.8768279,80.0527329 53.9919151,79.9379144 Z M15.8519985,73.3128871 C15.8404897,73.0488045 15.8059636,72.704349 15.7599287,72.5436031 C15.6793676,72.2795206 15.6678589,72.2910025 15.4722105,72.7962038 C15.2765622,73.3128871 15.2650535,73.3588145 15.4491931,73.6343789 C15.702385,74.0247618 15.8635072,73.8984614 15.8519985,73.3128871 Z M64.8791695,70.947626 C64.8906783,69.9946325 64.8906783,69.9831507 64.6605037,70.1898239 C64.3842943,70.4309428 64.3497682,71.2691178 64.5684339,72.0039562 C64.6950299,72.4402665 64.7180474,72.4517483 64.7870997,72.1876658 C64.8331346,72.0384018 64.8676608,71.4757911 64.8791695,70.947626 Z M50.5968411,70.6835435 C50.5738236,70.488352 50.4702451,70.4079791 50.2285618,70.3850154 L49.9063175,70.339088 L50.1134746,70.6376161 C50.389684,71.0050353 50.6543847,71.027999 50.5968411,70.6835435 Z M49.1352329,68.1116091 C49.2388114,67.9853088 49.215794,67.8819721 49.0776893,67.663817 C48.7899711,67.2160249 48.2950959,67.3193615 47.9958691,67.893454 C47.8922905,68.0771636 47.8807818,68.0197543 47.915308,67.5834441 C47.9383254,67.1815793 47.9037993,67.0323153 47.788712,67.0323153 C47.7081509,67.0323153 47.8922905,66.7911964 48.2030261,66.5041502 C48.6518664,66.0908036 48.755445,65.9300577 48.6518664,65.8152392 C48.5828141,65.7348662 48.5597966,65.5167111 48.6058315,65.3215197 C48.6633752,65.0459553 48.628849,64.9426186 48.4447094,64.8278001 C48.2145349,64.6900179 48.2260436,64.6785361 48.5252705,64.4833446 C48.9395846,64.2077802 49.1122155,64.2192621 49.0431631,64.5063083 C48.9510933,64.8622457 49.468986,65.5511567 49.7567041,65.4707837 C50.0789484,65.3674471 50.0904571,65.3559652 49.9063175,64.988546 C49.6876517,64.5637176 49.7451954,64.069998 50.055931,63.5303511 C50.3091229,63.1055227 50.2861055,62.8873675 49.9983873,63.1170045 C49.8717913,63.2203412 49.7682128,63.1744138 49.4804947,62.9103312 C49.1237242,62.5773576 49.1237242,62.5658757 49.3769161,62.5314302 C49.549547,62.5084665 49.6301081,62.4280935 49.5955819,62.3247569 C49.5725645,62.2329021 49.5265296,61.854001 49.4920034,61.4865818 C49.4344598,60.7402616 49.2388114,60.4876609 49.2273027,61.1421264 C49.2273027,61.5784366 49.1582504,61.5210274 48.962602,60.9124894 C48.9050584,60.7402616 48.8590235,60.7287798 48.6633752,60.8321164 C48.5137617,60.9124894 48.4332006,60.9124894 48.4332006,60.8321164 C48.4332006,60.7747072 48.4792356,60.7172979 48.5482879,60.7172979 C48.9280758,60.7172979 49.3193725,59.7068951 49.0086369,59.5117037 C48.8014799,59.3854033 48.8935497,59.2246574 49.1697591,59.2246574 C49.468986,59.2246574 49.5840732,58.9835386 49.5840732,58.3290732 C49.5840732,58.0764725 49.5380383,57.9731358 49.4574772,58.0305451 C49.3769161,58.0764725 49.3538987,58.2716639 49.3884249,58.4898191 L49.4574772,58.880202 L49.1927765,58.6850105 C48.962602,58.5127828 48.9510933,58.4668554 49.1007067,58.3520369 C49.3308812,58.191291 49.1927765,57.3875615 48.9395846,57.3875615 C48.8129886,57.3875615 48.8475148,57.2957067 49.0776893,57.043106 C49.34239,56.7675416 49.422951,56.733096 49.5035121,56.8708782 C49.5955819,57.043106 49.9408437,57.1005152 50.0789484,56.9742149 C50.1134746,56.9282875 50.0674397,56.7790234 49.9638612,56.6297594 C49.7912303,56.3656769 49.802739,56.354195 50.0904571,56.354195 C50.2515793,56.354195 50.389684,56.3082676 50.389684,56.2393765 C50.389684,56.0671488 49.7336866,56.1015943 49.6646343,56.2738221 C49.6301081,56.3656769 49.549547,56.3312313 49.4114423,56.1590036 C49.2388114,55.9064029 48.7899711,55.8030662 48.628849,55.9638121 C48.5943228,56.0097395 48.6173403,56.1475217 48.6863926,56.2738221 C48.8014799,56.4919772 48.7899711,56.4919772 48.4447094,56.2508584 C48.1569912,56.0441851 48.0879389,56.0212214 48.0879389,56.1704854 C48.0879389,56.2738221 47.9958691,56.354195 47.8692731,56.354195 C47.7541858,56.354195 47.5930637,56.434568 47.5125026,56.5264228 C47.3513804,56.7216142 47.3859066,56.7905053 48.0764302,57.5483074 C48.4792356,57.9846177 48.4792356,57.9960995 48.1454825,57.7664625 C47.9613429,57.6401622 47.6851335,57.4908981 47.5355201,57.4449707 C47.2823281,57.3760796 47.2708194,57.3875615 47.3053455,58.0420269 L47.3398717,58.7079742 L47.788712,58.7653835 C48.1915174,58.8113109 48.2145349,58.8457564 48.0534127,58.9835386 C47.9383254,59.0639115 47.8577644,59.2705848 47.8577644,59.4313307 C47.8577644,59.7068951 47.8577644,59.718377 47.6275899,59.5117037 C47.3974153,59.3050304 47.3974153,59.3050304 47.4664677,59.9824595 C47.5125026,60.4302517 47.4779764,60.9124894 47.3628892,61.4062089 C46.8565052,63.5418329 46.8795227,65.7807936 47.4319415,66.2400676 C47.6506073,66.4237772 47.6506073,66.4467409 47.4894851,66.4582228 C47.3743979,66.4582228 47.2823281,66.4122954 47.2823281,66.3434043 C47.2823281,66.285995 47.1902583,66.2285858 47.0866798,66.2285858 C46.9025401,66.2400676 46.9025401,66.2515495 47.0636623,66.3778498 C47.3859066,66.6189687 47.5125026,66.9978697 47.5125026,67.7097444 C47.5125026,68.5134739 47.6851335,68.9842297 47.9958691,68.9842297 C48.1800087,68.9842297 48.1685,68.9383023 47.8922905,68.7086653 C47.5240113,68.3871735 47.5470288,68.2953187 48.0073778,68.3756917 C48.2145349,68.4216191 48.3181134,68.5134739 48.3181134,68.6512561 C48.3181134,68.7890383 48.375657,68.8349657 48.4907443,68.8005201 C48.6058315,68.7545927 48.6633752,68.8005201 48.6748839,68.9383023 C48.6748839,69.0646027 48.755445,68.9497842 48.8475148,68.7086653 C48.9395846,68.4675465 49.0661806,68.1919821 49.1352329,68.1116091 Z M50.6198585,68.0312362 C50.6198585,68.0082725 50.4587364,67.8475266 50.2515793,67.6523352 L49.8948088,67.3193615 L50.1480008,67.6982626 C50.3551578,67.9967906 50.6198585,68.1805002 50.6198585,68.0312362 Z M50.2745967,67.1471338 C50.2745967,67.0897245 50.1710182,66.9863879 50.0444222,66.9174968 C49.8487739,66.8141601 49.8142477,66.825642 49.8142477,67.0323153 C49.8142477,67.1815793 49.8948088,67.2619523 50.0444222,67.2619523 C50.1710182,67.2619523 50.2745967,67.2160249 50.2745967,67.1471338 Z M64.4878729,65.44782 C64.522399,65.0229916 64.5799427,64.4603809 64.6029601,64.1848165 C64.648995,63.8173973 64.6144688,63.691097 64.5108903,63.7370244 C64.441838,63.7599881 64.3382594,64.0355525 64.3037333,64.3455624 C64.2576984,64.6555724 64.1426111,65.0804008 64.0390326,65.2755923 C63.935454,65.4822656 63.8779104,65.7233844 63.9124366,65.8152392 C63.9469628,65.9185758 63.9929977,66.0793217 64.0275238,66.1711765 C64.0505413,66.2630313 64.1541198,66.3089587 64.2461896,66.2745132 C64.3612769,66.2285858 64.4303292,65.9645032 64.4878729,65.44782 Z M64.648995,63.1055227 C64.8101172,62.6692124 64.9136957,60.9813805 64.7870997,60.9010075 C64.7295561,60.8550801 64.5569252,60.9469349 64.4073118,61.0847171 C64.0965762,61.394727 64.0735587,61.8769647 64.3497682,62.1869747 C64.648995,62.5084665 64.5914514,62.5658757 64.0275238,62.542912 C63.4175614,62.5084665 63.3370003,62.5658757 63.4405788,62.9447768 C63.4866137,63.1399682 63.5671748,63.2088593 63.6822621,63.1744138 C63.7743319,63.1284864 63.854893,63.1629319 63.854893,63.231823 C63.854893,63.3007141 64.0160151,63.3581234 64.2001547,63.3581234 C64.4533467,63.3581234 64.5799427,63.2892323 64.648995,63.1055227 Z M17.3596415,62.6577305 C17.3596415,62.4510572 17.3366241,62.4395754 17.1870106,62.5543939 C17.0143798,62.6921761 17.0489059,62.8988494 17.256063,62.8988494 C17.3136066,62.8988494 17.3596415,62.7840309 17.3596415,62.6577305 Z M64.0390326,61.1765719 C64.0850675,60.6943342 63.9239453,60.5450702 63.7973493,60.9584168 C63.7167882,61.2110174 63.8203668,61.8195555 63.935454,61.704737 C63.9699802,61.6702914 64.0160151,61.4291726 64.0390326,61.1765719 Z M49.468986,60.1202417 C49.468986,59.8331955 49.4344598,59.7872681 49.3538987,59.9135684 C49.2042853,60.1432054 49.2042853,60.4876609 49.3538987,60.4876609 C49.422951,60.4876609 49.468986,60.3154332 49.468986,60.1202417 Z M64.4763641,58.1338817 C64.5108903,58.0420269 64.4763641,57.961654 64.4073118,57.961654 C64.3267507,57.961654 64.3497682,57.9042447 64.4533467,57.8238718 C64.7525736,57.5827529 65.0057655,56.5953139 65.0057655,55.6767659 C65.0057655,54.7008086 64.8446434,54.6778449 64.5914514,55.6308385 C64.441838,56.1819673 64.3727856,56.0441851 64.4303292,55.2749011 C64.441838,55.0682278 64.4073118,54.976373 64.3267507,55.0223004 C64.2461896,55.0682278 64.2001547,55.0108186 64.2001547,54.8845182 C64.2001547,54.6433994 63.8203668,54.2415347 63.7052795,54.367835 C63.5556661,54.5056172 63.6247184,54.6319175 63.854893,54.6319175 C64.1195936,54.6319175 64.1541198,54.746736 63.9469628,54.9534093 C63.8433842,55.056746 63.854893,55.1371189 64.0045064,55.2978648 C64.1080849,55.4126833 64.2346809,55.7571388 64.2692071,56.0441851 C64.3382594,56.5149409 64.3267507,56.583832 64.1541198,56.5149409 C63.9239453,56.4230861 63.9239453,56.5723502 64.1426111,56.8593964 C64.3612769,57.1349608 64.3612769,57.2842248 64.1656285,57.2038519 C63.935454,57.1234789 63.5901923,57.5597892 63.6707533,57.8238718 C63.7167882,57.9386903 63.854893,58.0994362 64.0045064,58.1683273 C64.3497682,58.340555 64.3958031,58.3290732 64.4763641,58.1338817 Z M17.9235691,56.2967858 C17.9235691,56.1130762 17.8775342,55.8489936 17.8199905,55.7226933 C17.7279207,55.4930563 17.716412,55.5045381 17.716412,55.7341751 C17.7049033,56.0671488 17.4171852,56.2738221 17.0719234,56.2164128 C16.8417489,56.1704854 16.7842052,56.1934491 16.8302401,56.3427132 C16.8532576,56.4460498 16.9223099,56.7101324 16.9568361,56.9282875 C17.0834321,57.5483074 17.129467,57.5597892 17.5437811,57.0890334 C17.7969731,56.7905053 17.9235691,56.5264228 17.9235691,56.2967858 Z M65.0057655,53.9774521 C64.9942568,53.5755874 64.9827481,53.5526237 64.8331346,53.759297 C64.7180474,53.908561 64.7065386,54.0348614 64.7870997,54.1841254 C64.9482219,54.5056172 65.0057655,54.448208 65.0057655,53.9774521 Z M51.3794344,53.1737226 C51.2873646,53.0818678 50.9651203,53.2311319 50.9651203,53.3689141 C50.9651203,53.449287 51.0341726,53.449287 51.2068035,53.3689141 C51.3333995,53.2885411 51.4139606,53.2081682 51.3794344,53.1737226 Z M65.3510273,52.1862836 C65.3510273,52.1288743 65.2704662,52.1059106 65.1668877,52.1288743 C65.0633091,52.151838 64.9136957,52.3699931 64.8216259,52.6225938 C64.6144688,53.2081682 64.6259776,53.2311319 64.8676608,53.2770593 C65.0172742,53.3115048 65.0978353,53.1966863 65.2014138,52.7948216 C65.2819749,52.5077753 65.3395186,52.232211 65.3510273,52.1862836 Z M66.2487079,52.5077753 C66.3177602,52.3470294 66.3407777,52.2207291 66.2947428,52.2207291 C66.1566381,52.2207291 65.9264636,52.4848116 65.9264636,52.6455575 C65.9264636,52.8981582 66.1106032,52.8177853 66.2487079,52.5077753 Z M65.5351669,50.9921712 C65.5696931,50.8773527 65.6387454,50.6936431 65.6962891,50.5903064 C65.7883589,50.4295605 65.7538327,50.4180787 65.4430971,50.5099335 C64.9136957,50.6591975 64.7870997,50.8199434 65.0518004,51.0266167 C65.3510273,51.23329 65.4546058,51.23329 65.5351669,50.9921712 Z M19.3736685,49.8095407 C19.4542296,49.4306396 19.4427209,49.4191578 19.27009,49.6373129 C19.1780202,49.7636133 19.0859504,49.9932503 19.0859504,50.1539961 C19.0859504,50.5328972 19.27009,50.314742 19.3736685,49.8095407 Z M79.8980564,48.8106197 C79.9440913,48.6958012 79.9440913,48.6498738 79.8980564,48.6958012 C79.8520215,48.7417286 79.621847,48.3628276 79.3801638,47.8576262 C79.1384806,47.3524248 78.9198148,46.9390782 78.8737799,46.9390782 C78.8392537,46.9390782 78.908306,47.1342697 79.0233933,47.3753885 C79.1499893,47.6050255 79.3111114,48.0068902 79.3916725,48.2594909 C79.5182685,48.6613557 79.7024081,49.0058112 79.7944779,49.0058112 C79.8174954,49.0058112 79.8635303,48.9139564 79.8980564,48.8106197 Z M78.0681691,47.7428077 C78.1947651,47.5361344 77.8149771,46.881669 77.2050147,46.2501672 C76.7101395,45.7220021 76.6756133,45.6990384 77.020875,46.1353487 C77.2510496,46.4109131 77.4927328,46.8472234 77.5617851,47.111306 C77.6308375,47.3639067 77.7113986,47.6394711 77.734416,47.719844 C77.7804509,47.8805899 77.9645905,47.9035536 78.0681691,47.7428077 Z M78.3558872,46.6175864 C78.3558872,46.4338768 78.4019221,46.3764676 78.5055006,46.4338768 C78.8392537,46.6405501 77.5732939,45.2627282 77.147471,44.9756819 C76.8942791,44.7919723 76.560526,44.5393716 76.3994039,44.4130713 C75.8354763,43.976761 74.5580078,43.5863781 73.4531701,43.5289688 C72.3022975,43.4600777 71.2895297,43.5634144 71.3931082,43.7356421 C71.4391431,43.7930514 71.5427217,43.8389788 71.6347915,43.8389788 C71.7268613,43.8389788 72.0145794,43.9423154 72.2907888,44.0571339 C72.5554895,44.1834343 73.0963996,44.3097346 73.4876963,44.355662 C74.2357634,44.4245531 75.3981447,44.7690086 75.6628454,44.9986456 C75.7894414,45.1019823 75.8239676,45.0905004 75.8239676,44.9412364 C75.8239676,44.8264179 75.9275461,44.7575268 76.100177,44.7575268 C76.4224213,44.7575268 77.0669099,45.4234741 77.7229073,46.4453587 C78.1717476,47.1457515 78.3558872,47.2031608 78.3558872,46.6175864 Z M34.0933285,37.099133 C34.116346,36.9843145 34.1738896,36.7087501 34.2084158,36.490595 C34.2659594,36.1461395 34.2659594,36.1346576 34.1623809,36.3642946 C34.0933285,36.5135587 33.9437151,36.7776412 33.8056104,36.9613508 C33.5754359,37.2943244 33.5754359,37.2943244 33.8056104,37.2943244 C33.9322064,37.2943244 34.0588024,37.2024696 34.0933285,37.099133 Z M34.7378172,36.8465323 C34.7378172,36.6857864 34.5191514,36.2265124 34.5076427,36.3757765 C34.5076427,36.410222 34.4616078,36.5939316 34.4040641,36.789123 C34.3119943,37.1106148 34.3235031,37.1450604 34.5191514,37.099133 C34.6342387,37.0646874 34.7378172,36.9498689 34.7378172,36.8465323 Z M50.9190854,34.653499 L50.7809807,33.9071788 L50.642876,34.4468257 C50.4587364,35.1701822 50.4587364,35.2161096 50.7694719,35.3309281 C50.9075767,35.3883374 51.0341726,35.4227829 51.0456814,35.4113011 C51.0456814,35.4113011 50.9996465,35.0668456 50.9190854,34.653499 Z M21.6754136,26.4210127 C21.951623,25.3072733 21.8480445,25.1580093 21.4107129,26.0421117 C21.1229948,26.6047223 21.0424337,26.9147323 21.0424337,27.4084518 L21.0539424,28.0514354 L21.2610995,27.6495707 C21.3761868,27.4314155 21.5603264,26.8802867 21.6754136,26.4210127 Z M67.9289818,22.5745931 C67.710316,22.1842102 67.6182462,22.1268009 67.5261764,22.276065 C67.376563,22.4942201 67.3995804,22.5745931 67.629755,22.6320023 C67.9750167,22.7238571 68.0095429,22.7123753 67.9289818,22.5745931 Z M36.9014576,19.6122758 C36.9014576,19.1300381 36.8784401,19.0496652 36.8093878,19.2678203 C36.7633529,19.4285662 36.717318,19.8419128 36.717318,20.1863683 C36.717318,20.668606 36.7403354,20.748979 36.8093878,20.5308238 C36.8554227,20.3700779 36.9014576,19.9567313 36.9014576,19.6122758 Z M24.3914729,16.925523 C24.9208742,16.3399487 25.0474702,16.1103117 25.1280313,15.6510377 C25.2201011,15.0195359 25.0474702,14.7898989 24.4950514,14.7898989 C24.2303507,14.7898989 24.1612984,14.85879 24.0462111,15.2606548 C23.9541413,15.547701 23.8160366,15.7543743 23.6894406,15.7888199 C23.4017225,15.8691928 23.2866352,16.5695857 23.4592661,17.1896055 C23.5283184,17.4422062 23.6203883,17.6603614 23.6664232,17.6488795 C23.7124581,17.6488795 24.0347024,17.3159059 24.3914729,16.925523 Z M26.2213602,8.14190794 C26.3479562,7.61374285 26.440026,7.15446886 26.4054998,7.12002331 C26.2904126,7.01668667 25.8645897,8.17635349 25.7955374,8.76192783 C25.7034676,9.62306656 25.9336421,9.29009292 26.2213602,8.14190794 Z M27.0845147,6.75260412 C27.3722328,6.74112227 27.4988288,6.63778562 27.8555993,6.10962054 C28.2123698,5.58145545 28.2468959,5.51256435 28.0282302,5.615901 C27.4412852,5.92591094 26.819814,6.41963048 26.6241656,6.71815857 C26.5090784,6.89038632 26.4860609,6.97075927 26.5781307,6.90186817 C26.6586918,6.82149522 26.8888663,6.75260412 27.0845147,6.75260412 Z M45.1532139,0.552405261 C45.3718796,0.460550463 45.3718796,0.449068614 45.1301964,0.449068614 C44.9920917,0.437586764 44.8424783,0.494996012 44.8079521,0.552405261 C44.727391,0.690187458 44.8309695,0.690187458 45.1532139,0.552405261 Z" id="Shape" fill="#0CB3B3" fill-rule="nonzero"></path>
                    <path d="M23.3136011,108.435894 C23.1803261,108.376987 23.1612868,108.31808 23.2564832,108.156086 C23.3992778,107.876278 23.5325528,107.905731 23.818142,108.244446 L24.0561331,108.538981 L23.7705438,108.524255 C23.6182296,108.509528 23.4087975,108.480074 23.3136011,108.435894 Z" id="Path" fill="#2CB5B5" fill-rule="nonzero"></path>
                    <path d="M18.4184138,99.5796135 C18.3670244,99.5421023 18.3284823,99.2170052 18.3284823,98.8669005 L18.3413297,98.22921 L18.6625137,98.8418931 C18.9323082,99.3295388 18.9580029,99.4670799 18.816682,99.5546061 C18.6111242,99.6921472 18.5211927,99.6921472 18.4184138,99.5796135 Z" id="Path" fill="#2CB5B5" fill-rule="nonzero"></path>
                    <path d="M40.7107959,87.8378229 C40.760068,87.628959 40.7994857,87.420095 40.8093402,87.3604196 C40.8093402,87.3106901 40.8586123,87.4002032 40.9078845,87.5593377 C41.0064288,87.9074442 40.9374478,88.2058212 40.7502136,88.2058212 C40.6516693,88.2058212 40.6418148,88.1163081 40.7107959,87.8378229 Z" id="Path" fill="#2CB5B5" fill-rule="nonzero"></path>
                    <path d="M15.1841052,87.0370749 C15.2066783,87.0114413 15.342117,86.8576399 15.5001287,86.6910217 C15.771006,86.4218693 15.771006,86.4218693 15.7333842,86.678205 C15.7108111,86.8191896 15.6355674,86.9345406 15.5603237,86.9345406 C15.48508,86.9345406 15.3571657,86.972991 15.281922,87.0242581 C15.2066783,87.0627085 15.1615321,87.0755252 15.1841052,87.0370749 Z" id="Path" fill="#2CB5B5" fill-rule="nonzero"></path>
                    <path d="M34.9464411,76.9885602 C34.906187,76.9513265 35.0269492,76.8098386 35.2013836,76.6683507 C35.5770884,76.3704815 35.6039245,76.3928217 35.3221459,76.772605 C35.1074574,77.048134 35.0537853,77.0853677 34.9464411,76.9885602 Z" id="Path" fill="#2CB5B5" fill-rule="nonzero"></path>
                    <path d="M25.9930034,72.6755567 C25.7324143,72.6228967 25.712369,72.5491727 25.8927768,72.2858728 C26.0230713,72.1068288 26.0431166,72.1173608 26.3638417,72.4227887 C26.704612,72.7387487 26.704612,72.7492806 26.4640682,72.7387487 C26.323751,72.7282167 26.1132752,72.6966207 25.9930034,72.6755567 Z" id="Path" fill="#2CB5B5" fill-rule="nonzero"></path>
                    <path d="M17.4693347,69.3553175 C17.4693347,69.1015526 17.8727981,68.639338 18.0033304,68.7480944 C18.1101295,68.8296617 17.9914638,69.0924896 17.7066661,69.3643805 L17.4693347,69.5909563 L17.4693347,69.3553175 Z" id="Path" fill="#2CB5B5" fill-rule="nonzero"></path>
                    <path d="M47.8365238,65.4259293 C47.8063253,65.3043944 47.8365238,65.2783512 47.9774505,65.3043944 C48.1284433,65.3391187 48.1485757,65.3738429 48.05798,65.4693346 C47.9069872,65.6255938 47.896921,65.6255938 47.8365238,65.4259293 Z" id="Path" fill="#2CB5B5" fill-rule="nonzero"></path>
                    <path d="M47.6025681,63.9839217 C47.4849455,63.8531988 47.524153,63.8413149 47.7855366,63.8888505 C47.9685051,63.9126183 48.1122661,63.9839217 48.1122661,64.0433412 C48.1122661,64.2097157 47.7724674,64.174064 47.6025681,63.9839217 Z" id="Path" fill="#2CB5B5" fill-rule="nonzero"></path>
                    <path d="M48.0592984,62.7494248 C47.9201334,62.6112559 47.8118939,62.4730871 47.8273567,62.4605263 C47.8969392,62.347479 48.2912401,62.5861343 48.3608226,62.7871073 C48.4535992,63.0885666 48.3840167,63.0760058 48.0592984,62.7494248 Z" id="Path" fill="#2CB5B5" fill-rule="nonzero"></path>
                    <path d="M48.2839904,62.583539 C48.1903226,62.5051702 48.1122661,62.3974132 48.1122661,62.3484327 C48.1122661,62.2700639 48.5884106,61.8586279 48.6742727,61.8586279 C48.6976897,61.8586279 48.6820784,62.0545498 48.6352445,62.2994522 C48.5415767,62.789257 48.5337711,62.7990531 48.2839904,62.583539 Z" id="Path" fill="#2CB5B5" fill-rule="nonzero"></path>
                    <path d="M47.8792418,59.9971414 C47.8163587,59.9207727 47.8073754,59.8539501 47.8612752,59.8539501 C47.9061917,59.8539501 47.9960248,59.9207727 48.0589079,59.9971414 C48.121791,60.07351 48.1307743,60.1403326 48.0768745,60.1403326 C48.031958,60.1403326 47.9421249,60.07351 47.8792418,59.9971414 Z" id="Path" fill="#2CB5B5" fill-rule="nonzero"></path>
                    <path d="M1.39446896,97.2534993 C1.3128778,96.8632627 1.2176881,96.7366995 0.850527861,96.5784955 C0.483367618,96.3991976 0.401776453,96.2937282 0.320185288,95.8613039 C0.25219265,95.4394265 0.279389705,95.3234102 0.469769091,95.2179409 C0.918520499,94.9542675 1.19049105,95.0597369 1.4624616,95.5870836 C1.6120454,95.8613039 1.88401595,96.325369 2.07439534,96.6101363 C2.26477472,96.9054505 2.34636589,97.0531076 2.2511762,96.9476382 C1.73443215,96.3675568 1.74803068,96.3675568 1.73443215,97.0003729 C1.73443215,97.7386583 1.51685571,97.8968623 1.39446896,97.2534993 Z" id="Path" fill="#2CB5B5" fill-rule="nonzero"></path>
                    <path d="M79.3757486,64.8129823 C79.2994694,64.5559247 79.3185392,63.9071603 79.4043533,63.625621 C79.4424929,63.478731 79.4997023,63.6623435 79.5664466,64.2009404 C79.6331909,64.8007415 79.6331909,65.0088358 79.5473768,65.0088358 C79.4806325,65.0088358 79.4043533,64.9231499 79.3757486,64.8129823 Z" id="Path" fill="#2CB5B5" fill-rule="nonzero"></path>
                    <path d="M78.1824324,61.8586279 C78.1824324,61.6589813 78.2397089,61.536975 78.3256237,61.5813409 C78.4115385,61.6146154 78.468815,61.7477131 78.468815,61.8586279 C78.468815,61.9695426 78.4115385,62.1026404 78.3256237,62.1359148 C78.2397089,62.1802807 78.1824324,62.0582745 78.1824324,61.8586279 Z" id="Path" fill="#2CB5B5" fill-rule="nonzero"></path>
                    <path d="M30.51264,55.7628809 C30.291282,55.6373008 30.291282,55.6225267 30.6037874,55.4230759 C30.8902508,55.2383993 30.9293139,55.2310123 30.9293139,55.3565924 C30.9162929,55.4378501 30.8772297,55.5929784 30.8251455,55.6963973 C30.7470191,55.8810739 30.733998,55.8810739 30.51264,55.7628809 Z" id="Path" fill="#2CB5B5" fill-rule="nonzero"></path>
                    <path d="M32.1645048,55.4527474 C32.1645048,55.3941559 32.133747,55.241818 32.1029892,55.1246351 C32.0517262,54.9371423 32.0619788,54.9371423 32.2055152,55.1363534 C32.3900621,55.4058742 32.4105673,55.5582121 32.2670308,55.5582121 C32.2157678,55.5582121 32.1645048,55.5113389 32.1645048,55.4527474 Z" id="Path" fill="#2CB5B5" fill-rule="nonzero"></path>
                    <path d="M49.7906436,53.6480966 C49.712934,53.5056441 49.6093211,53.3453851 49.5575147,53.2919654 C49.5057083,53.2385457 49.6093211,53.2741588 49.7906436,53.3720949 C49.9590144,53.470031 50.1144337,53.5501605 50.1144337,53.5501605 C50.1273853,53.5501605 50.0885304,53.63029 50.036724,53.7282261 C49.9460628,53.8884852 49.9201596,53.8884852 49.7906436,53.6480966 Z" id="Path" fill="#2CB5B5" fill-rule="nonzero"></path>
                    <path d="M49.5302667,52.0385021 C49.3989062,51.9548734 49.366066,51.8991209 49.4481663,51.8991209 C49.5466867,51.8991209 49.5138466,51.8433684 49.3824861,51.7736778 C49.2347055,51.6900491 49.2182855,51.6203585 49.3332259,51.564606 C49.4317463,51.5088535 49.5959469,51.6064204 49.6944673,51.7736778 C49.9243481,52.1221308 49.8586679,52.2057595 49.5302667,52.0385021 Z" id="Path" fill="#2CB5B5" fill-rule="nonzero"></path>
                    <path d="M65.2952183,48.6645496 C65.2952183,48.3349682 65.3307845,47.9394704 65.3663506,47.768088 C65.437483,47.4780564 65.4611938,47.4780564 65.6627354,47.6889885 C65.9472648,47.9790202 65.9472648,47.9922034 65.5916031,48.6777329 L65.2952183,49.2577963 L65.2952183,48.6645496 Z" id="Path" fill="#2CB5B5" fill-rule="nonzero"></path>
                    <path d="M68.5091299,44.8019058 C68.6766071,44.4872515 70.2397272,42.9573805 70.3960392,42.9573805 C70.6305072,42.9573805 70.0499197,43.8253924 69.6591397,44.0532455 C69.4246717,44.1942974 69.0338917,44.4764013 68.7994237,44.6934043 C68.4198088,45.0189088 68.3863133,45.0406091 68.5091299,44.8019058 Z" id="Path" fill="#2CB5B5" fill-rule="nonzero"></path>
                    <path d="M50.1887055,44.5325566 C50.0885048,44.4179458 50.0885048,44.3892931 50.2187657,44.3892931 C50.4492273,44.3892931 50.6897089,44.494353 50.6897089,44.589862 C50.6897089,44.7331255 50.3189664,44.685371 50.1887055,44.5325566 Z" id="Path" fill="#2CB5B5" fill-rule="nonzero"></path>
                    <path d="M51.311188,44.4667079 C51.1284081,44.3454422 50.9760915,44.2241764 50.9760915,44.1787017 C50.9760915,44.133227 51.1791803,44.1029106 51.4228868,44.1029106 C51.8189099,44.1029106 51.8696821,44.133227 51.8189099,44.406075 C51.7579833,44.7547142 51.7478289,44.7547142 51.311188,44.4667079 Z" id="Path" fill="#2CB5B5" fill-rule="nonzero"></path>
                    <path d="M50.840025,43.3548786 C50.9875966,43.2600927 51.1679618,43.2179656 51.2335492,43.2600927 C51.2991366,43.3022198 51.2499461,43.3759422 51.1187713,43.4286011 C50.7088502,43.5971094 50.5448818,43.5444505 50.840025,43.3548786 Z" id="Path" fill="#2CB5B5" fill-rule="nonzero"></path>
                    <path d="M35.5856818,40.0339484 C35.5432548,40.0066402 35.5114345,39.797277 35.5114345,39.5879139 C35.5114345,39.296626 35.5432548,39.2055986 35.6493224,39.2420096 C35.7447832,39.2693178 35.797817,39.44227 35.797817,39.6880441 C35.797817,40.0794622 35.7341765,40.1704896 35.5856818,40.0339484 Z" id="Path" fill="#2CB5B5" fill-rule="nonzero"></path>
                    <path d="M35.1351485,36.4477149 C34.9025516,36.0759907 34.8859376,35.9149102 35.0354641,35.7786113 C35.1351485,35.6918756 35.1683766,35.5060135 35.1185344,35.3821055 C35.0354641,35.221025 35.0520782,35.1838525 35.1683766,35.2705882 C35.3179032,35.3697147 35.6003423,36.9433472 35.4840438,36.9433472 C35.4508157,36.9433472 35.3012891,36.7203127 35.1351485,36.4477149 Z" id="Path" fill="#2CB5B5" fill-rule="nonzero"></path>
                    <path d="M67.3952363,25.0589019 C67.2666245,24.9045064 67.2666245,24.8824499 67.4044229,24.757463 C67.5789675,24.6030674 67.817818,24.5810109 67.7443255,24.7280543 C67.7167658,24.7942238 67.7810717,24.845689 67.9372432,24.8750977 C68.2863324,24.9486194 68.2036534,25.1691845 67.8270045,25.1985932 C67.6157137,25.2132975 67.505475,25.1765366 67.3952363,25.0589019 Z" id="Path" fill="#2CB5B5" fill-rule="nonzero"></path>
                    <path d="M38.1510969,13.8315401 C37.9912501,13.6839903 37.9193191,13.4693725 37.8633728,12.9998959 C37.8154188,12.6511419 37.7914418,12.3426288 37.8074264,12.3158016 C37.8154188,12.2889743 37.9592808,12.6645556 38.1111352,13.1474457 C38.2629896,13.6303358 38.3828746,14.0327443 38.3748823,14.0327443 C38.3748823,14.0193307 38.2709819,13.938849 38.1510969,13.8315401 Z" id="Path" fill="#2CB5B5" fill-rule="nonzero"></path>
                    <path d="M22.8043532,11.828661 C22.6375162,11.5592174 22.5491908,10.0233888 22.7062138,10.0233888 C22.7650975,10.0233888 22.8141672,10.0907497 22.8141672,10.1715828 C22.8141672,10.2524158 22.9123065,10.4275542 23.0202599,10.5488038 C23.2067247,10.7508865 23.2263526,10.8721362 23.167469,11.4110234 C23.0889575,12.0846324 23.0104459,12.1789377 22.8043532,11.828661 Z" id="Path" fill="#2CB5B5" fill-rule="nonzero"></path>
                    <path d="M38.0779682,10.0027097 C37.8221715,9.97677766 37.8024948,9.94220164 37.8024948,9.57050941 L37.8024948,9.16424116 L38.1074832,9.58779742 C38.2747349,9.81254156 38.3927949,10.0113537 38.3731182,10.0199977 C38.3534416,10.0286417 38.2255432,10.0199977 38.0779682,10.0027097 Z" id="Path" fill="#2CB5B5" fill-rule="nonzero"></path>
                    <path d="M32.3869952,3.58270398 C32.2698653,3.51256948 31.9536147,3.38398956 31.684216,3.30216598 L31.2156965,3.1502079 L31.8481978,3.17358607 C32.3869952,3.19696423 32.4924121,3.23203148 32.574403,3.46581314 C32.6329679,3.60608214 32.6563939,3.72297297 32.6446809,3.72297297 C32.6329679,3.72297297 32.515838,3.65283847 32.3869952,3.58270398 Z" id="Path" fill="#2CB5B5" fill-rule="nonzero"></path>
                </g>
            </g>
        </g>
    </g>
</svg>